<?xml version="1.0" encoding="utf-8" standalone="no"?>
<!DOCTYPE svg PUBLIC "-//W3C//DTD SVG 1.1//EN"
  "http://www.w3.org/Graphics/SVG/1.1/DTD/svg11.dtd">
<svg xmlns:xlink="http://www.w3.org/1999/xlink" width="518.4pt" height="273.6pt" viewBox="0 0 518.4 273.6" xmlns="http://www.w3.org/2000/svg" version="1.1">
 <metadata>
  <rdf:RDF xmlns:dc="http://purl.org/dc/elements/1.1/" xmlns:cc="http://creativecommons.org/ns#" xmlns:rdf="http://www.w3.org/1999/02/22-rdf-syntax-ns#">
   <cc:Work>
    <dc:type rdf:resource="http://purl.org/dc/dcmitype/StillImage"/>
    <dc:format>image/svg+xml</dc:format>
    <dc:creator>
     <cc:Agent>
      <dc:title>Matplotlib v3.11.2, https://matplotlib.org/</dc:title>
     </cc:Agent>
    </dc:creator>
   </cc:Work>
  </rdf:RDF>
 </metadata>
 <defs>
  <style type="text/css">*{stroke-linejoin: round; stroke-linecap: butt}</style>
 </defs>
 <g id="figure_1">
  <g id="patch_1">
   <path d="M 0 273.6 
L 518.4 273.6 
L 518.4 0 
L 0 0 
z
" style="fill: #ffffff"/>
  </g>
  <g id="axes_1">
   <g id="patch_2">
    <path d="M 37.090396 217.066832 
L 510.33351 217.066832 
L 510.33351 45.80072 
L 37.090396 45.80072 
z
" style="fill: #ffffff"/>
   </g>
   <g id="matplotlib.axis_1">
    <g id="xtick_1">
     <g id="line2d_1">
      <path d="M 37.090396 217.066832 
L 37.090396 45.80072 
" clip-path="url(#p1098b0e63c)" style="fill: none; stroke: #dfded9; stroke-width: 0.8; stroke-linecap: square"/>
     </g>
     <g id="line2d_2">
      <defs>
       <path id="mfeb0f94073" d="M 0 0 
L 0 3.5 
" style="stroke: #7b9194; stroke-width: 0.8"/>
      </defs>
      <g>
       <use xlink:href="#mfeb0f94073" x="37.090396" y="217.066832" style="fill: #7b9194; stroke: #7b9194; stroke-width: 0.8"/>
      </g>
     </g>
     <g id="text_1">
      <!-- 0 -->
      <g transform="translate(34.444068 234.566832) scale(0.105 -0.105)">
       <defs>
        <path id="BarlowSemiCondensed-Regular-1df" d="M 1606 -64 
Q 1056 -64 723 269 
Q 390 602 390 1158 
L 390 3322 
Q 390 3872 723 4205 
Q 1056 4538 1606 4538 
Q 2163 4538 2499 4205 
Q 2835 3872 2835 3322 
L 2835 1158 
Q 2835 602 2499 269 
Q 2163 -64 1606 -64 
z
M 1606 333 
Q 1958 333 2169 550 
Q 2381 768 2381 1126 
L 2381 3347 
Q 2381 3706 2169 3923 
Q 1958 4141 1606 4141 
Q 1267 4141 1056 3923 
Q 845 3706 845 3347 
L 845 1126 
Q 845 774 1056 553 
Q 1267 333 1606 333 
z
" transform="scale(0.015625)"/>
       </defs>
       <use xlink:href="#BarlowSemiCondensed-Regular-1df"/>
      </g>
     </g>
    </g>
    <g id="xtick_2">
     <g id="line2d_3">
      <path d="M 131.739019 217.066832 
L 131.739019 45.80072 
" clip-path="url(#p1098b0e63c)" style="fill: none; stroke: #dfded9; stroke-width: 0.8; stroke-linecap: square"/>
     </g>
     <g id="line2d_4">
      <g>
       <use xlink:href="#mfeb0f94073" x="131.739019" y="217.066832" style="fill: #7b9194; stroke: #7b9194; stroke-width: 0.8"/>
      </g>
     </g>
     <g id="text_2">
      <!-- 10 -->
      <g transform="translate(127.502105 234.566832) scale(0.105 -0.105)">
       <defs>
        <path id="BarlowSemiCondensed-Regular-1e0" d="M 960 4461 
Q 998 4480 1043 4480 
L 1389 4480 
Q 1453 4480 1453 4416 
L 1453 64 
Q 1453 0 1389 0 
L 1062 0 
Q 998 0 998 64 
L 998 3955 
Q 998 3968 988 3974 
Q 979 3981 966 3974 
L 326 3738 
Q 314 3731 294 3731 
Q 262 3731 250 3782 
L 218 4019 
L 218 4032 
Q 218 4064 262 4096 
L 960 4461 
z
" transform="scale(0.015625)"/>
       </defs>
       <use xlink:href="#BarlowSemiCondensed-Regular-1e0"/>
       <use xlink:href="#BarlowSemiCondensed-Regular-1df" transform="translate(30.296875 0)"/>
      </g>
     </g>
    </g>
    <g id="xtick_3">
     <g id="line2d_5">
      <path d="M 226.387642 217.066832 
L 226.387642 45.80072 
" clip-path="url(#p1098b0e63c)" style="fill: none; stroke: #dfded9; stroke-width: 0.8; stroke-linecap: square"/>
     </g>
     <g id="line2d_6">
      <g>
       <use xlink:href="#mfeb0f94073" x="226.387642" y="217.066832" style="fill: #7b9194; stroke: #7b9194; stroke-width: 0.8"/>
      </g>
     </g>
     <g id="text_3">
      <!-- 20 -->
      <g transform="translate(221.278736 234.566832) scale(0.105 -0.105)">
       <defs>
        <path id="BarlowSemiCondensed-Regular-1e1" d="M 890 429 
Q 870 397 902 397 
L 2662 397 
Q 2726 397 2726 333 
L 2726 64 
Q 2726 0 2662 0 
L 384 0 
Q 320 0 320 64 
L 320 346 
Q 320 384 346 429 
Q 922 1210 1632 2221 
Q 2138 2957 2138 3398 
Q 2138 3731 1946 3932 
Q 1754 4134 1440 4134 
Q 1133 4134 947 3932 
Q 762 3731 768 3398 
L 768 3181 
Q 768 3117 704 3117 
L 371 3117 
Q 307 3117 307 3181 
L 307 3437 
Q 320 3930 637 4230 
Q 954 4531 1453 4531 
Q 1965 4531 2278 4217 
Q 2592 3904 2592 3398 
Q 2592 2835 2067 2067 
Q 1741 1594 1037 634 
L 890 429 
z
" transform="scale(0.015625)"/>
       </defs>
       <use xlink:href="#BarlowSemiCondensed-Regular-1e1"/>
       <use xlink:href="#BarlowSemiCondensed-Regular-1df" transform="translate(46.90625 0)"/>
      </g>
     </g>
    </g>
    <g id="xtick_4">
     <g id="line2d_7">
      <path d="M 321.036265 217.066832 
L 321.036265 45.80072 
" clip-path="url(#p1098b0e63c)" style="fill: none; stroke: #dfded9; stroke-width: 0.8; stroke-linecap: square"/>
     </g>
     <g id="line2d_8">
      <g>
       <use xlink:href="#mfeb0f94073" x="321.036265" y="217.066832" style="fill: #7b9194; stroke: #7b9194; stroke-width: 0.8"/>
      </g>
     </g>
     <g id="text_4">
      <!-- 30 -->
      <g transform="translate(315.964272 234.566832) scale(0.105 -0.105)">
       <defs>
        <path id="BarlowSemiCondensed-Regular-1e2" d="M 2458 2125 
Q 2579 1792 2579 1363 
Q 2579 979 2483 698 
Q 2246 -51 1434 -51 
Q 998 -51 704 182 
Q 410 416 326 826 
Q 282 1030 282 1293 
Q 282 1357 346 1357 
L 672 1357 
Q 736 1357 736 1293 
Q 749 1018 768 922 
Q 826 653 998 499 
Q 1171 346 1434 346 
Q 1926 346 2074 845 
Q 2131 1075 2131 1395 
Q 2131 1779 2048 2029 
Q 1882 2477 1434 2477 
Q 1331 2477 1254 2438 
Q 1216 2426 1210 2426 
Q 1184 2426 1165 2451 
L 998 2624 
Q 966 2669 992 2714 
L 1990 4051 
Q 2003 4064 1996 4073 
Q 1990 4083 1978 4083 
L 378 4083 
Q 314 4083 314 4147 
L 314 4416 
Q 314 4480 378 4480 
L 2496 4480 
Q 2560 4480 2560 4416 
L 2560 4128 
Q 2560 4077 2534 4045 
L 1606 2778 
Q 1600 2771 1606 2758 
Q 1613 2746 1626 2746 
Q 1926 2733 2137 2573 
Q 2349 2413 2458 2125 
z
" transform="scale(0.015625)"/>
       </defs>
       <use xlink:href="#BarlowSemiCondensed-Regular-1e2"/>
       <use xlink:href="#BarlowSemiCondensed-Regular-1df" transform="translate(46.203125 0)"/>
      </g>
     </g>
    </g>
    <g id="xtick_5">
     <g id="line2d_9">
      <path d="M 415.684887 217.066832 
L 415.684887 45.80072 
" clip-path="url(#p1098b0e63c)" style="fill: none; stroke: #dfded9; stroke-width: 0.8; stroke-linecap: square"/>
     </g>
     <g id="line2d_10">
      <g>
       <use xlink:href="#mfeb0f94073" x="415.684887" y="217.066832" style="fill: #7b9194; stroke: #7b9194; stroke-width: 0.8"/>
      </g>
     </g>
     <g id="text_5">
      <!-- 40 -->
      <g transform="translate(410.502973 234.566832) scale(0.105 -0.105)">
       <defs>
        <path id="BarlowSemiCondensed-Regular-1e3" d="M 2765 1638 
Q 2829 1638 2829 1574 
L 2829 1293 
Q 2829 1229 2765 1229 
L 2528 1229 
Q 2502 1229 2502 1203 
L 2502 64 
Q 2502 0 2438 0 
L 2112 0 
Q 2048 0 2048 64 
L 2048 1203 
Q 2048 1229 2022 1229 
L 288 1229 
Q 224 1229 224 1293 
L 224 1536 
Q 224 1581 237 1613 
L 1376 4429 
Q 1395 4480 1446 4480 
L 1798 4480 
Q 1830 4480 1843 4457 
Q 1856 4435 1843 4403 
L 755 1670 
Q 749 1658 755 1648 
Q 762 1638 774 1638 
L 2022 1638 
Q 2048 1638 2048 1664 
L 2048 2675 
Q 2048 2739 2112 2739 
L 2438 2739 
Q 2502 2739 2502 2675 
L 2502 1664 
Q 2502 1638 2528 1638 
L 2765 1638 
z
" transform="scale(0.015625)"/>
       </defs>
       <use xlink:href="#BarlowSemiCondensed-Regular-1e3"/>
       <use xlink:href="#BarlowSemiCondensed-Regular-1df" transform="translate(48.296875 0)"/>
      </g>
     </g>
    </g>
    <g id="xtick_6">
     <g id="line2d_11">
      <path d="M 510.33351 217.066832 
L 510.33351 45.80072 
" clip-path="url(#p1098b0e63c)" style="fill: none; stroke: #dfded9; stroke-width: 0.8; stroke-linecap: square"/>
     </g>
     <g id="line2d_12">
      <g>
       <use xlink:href="#mfeb0f94073" x="510.33351" y="217.066832" style="fill: #7b9194; stroke: #7b9194; stroke-width: 0.8"/>
      </g>
     </g>
     <g id="text_6">
      <!-- 50 -->
      <g transform="translate(505.26726 234.566832) scale(0.105 -0.105)">
       <defs>
        <path id="BarlowSemiCondensed-Regular-1e4" d="M 2592 2067 
Q 2675 1766 2675 1376 
Q 2675 1050 2618 813 
Q 2522 397 2237 173 
Q 1952 -51 1523 -51 
Q 1088 -51 800 179 
Q 512 410 422 826 
Q 390 941 384 1062 
L 384 1075 
Q 384 1126 442 1126 
L 774 1126 
Q 832 1126 838 1075 
L 838 1050 
L 864 922 
Q 922 646 1091 499 
Q 1261 352 1523 352 
Q 1779 352 1948 502 
Q 2118 653 2176 928 
Q 2221 1107 2221 1370 
Q 2221 1613 2170 1869 
Q 2112 2125 1945 2256 
Q 1779 2387 1523 2387 
Q 1280 2387 1104 2275 
Q 928 2163 858 1952 
L 845 1926 
Q 838 1882 781 1882 
L 442 1882 
Q 378 1882 378 1946 
L 378 4416 
Q 378 4480 442 4480 
L 2470 4480 
Q 2534 4480 2534 4416 
L 2534 4147 
Q 2534 4083 2470 4083 
L 858 4083 
Q 832 4083 832 4058 
L 832 2490 
Q 832 2477 841 2473 
Q 851 2470 864 2483 
Q 992 2624 1187 2704 
Q 1382 2784 1606 2784 
Q 1984 2784 2237 2601 
Q 2490 2419 2592 2067 
z
" transform="scale(0.015625)"/>
       </defs>
       <use xlink:href="#BarlowSemiCondensed-Regular-1e4"/>
       <use xlink:href="#BarlowSemiCondensed-Regular-1df" transform="translate(46.09375 0)"/>
      </g>
     </g>
    </g>
    <g id="text_7">
     <!-- range to the target, km (dots: the horizon) -->
     <g transform="translate(189.516719 251.166832) scale(0.105 -0.105)">
      <defs>
       <path id="BarlowSemiCondensed-Regular-12b" d="M 1651 3270 
Q 1843 3270 1978 3194 
Q 2022 3174 2010 3117 
L 1933 2784 
Q 1926 2720 1856 2746 
Q 1754 2790 1632 2790 
L 1555 2784 
Q 1274 2778 1088 2541 
Q 902 2304 902 1965 
L 902 64 
Q 902 0 838 0 
L 512 0 
Q 448 0 448 64 
L 448 3174 
Q 448 3238 512 3238 
L 838 3238 
Q 902 3238 902 3174 
L 902 2758 
Q 902 2739 912 2739 
Q 922 2739 928 2752 
Q 1037 2995 1219 3132 
Q 1402 3270 1651 3270 
z
" transform="scale(0.015625)"/>
       <path id="BarlowSemiCondensed-Regular-ad" d="M 1485 3290 
Q 1997 3290 2288 2995 
Q 2579 2701 2579 2214 
L 2579 64 
Q 2579 0 2515 0 
L 2189 0 
Q 2125 0 2125 64 
L 2125 294 
Q 2125 307 2115 313 
Q 2106 320 2093 307 
Q 1952 128 1734 38 
Q 1517 -51 1248 -51 
Q 845 -51 560 166 
Q 275 384 275 877 
Q 275 1389 604 1654 
Q 934 1920 1504 1920 
L 2099 1920 
Q 2125 1920 2125 1946 
L 2125 2189 
Q 2125 2515 1961 2704 
Q 1798 2893 1478 2893 
Q 1229 2893 1062 2768 
Q 896 2643 864 2438 
Q 858 2381 794 2381 
L 442 2400 
Q 410 2400 394 2419 
Q 378 2438 384 2464 
Q 429 2835 733 3062 
Q 1037 3290 1485 3290 
z
M 1338 346 
Q 1658 346 1891 522 
Q 2125 698 2125 1011 
L 2125 1530 
Q 2125 1555 2099 1555 
L 1536 1555 
Q 1171 1555 953 1385 
Q 736 1216 736 902 
Q 736 621 902 483 
Q 1069 346 1338 346 
z
" transform="scale(0.015625)"/>
       <path id="BarlowSemiCondensed-Regular-10a" d="M 1702 3283 
Q 2150 3283 2409 2998 
Q 2669 2714 2669 2221 
L 2669 64 
Q 2669 0 2605 0 
L 2278 0 
Q 2214 0 2214 64 
L 2214 2157 
Q 2214 2490 2041 2688 
Q 1869 2886 1568 2886 
Q 1267 2886 1084 2684 
Q 902 2483 902 2144 
L 902 64 
Q 902 0 838 0 
L 512 0 
Q 448 0 448 64 
L 448 3174 
Q 448 3238 512 3238 
L 838 3238 
Q 902 3238 902 3174 
L 902 2925 
Q 902 2912 912 2905 
Q 922 2899 934 2912 
Q 1184 3283 1702 3283 
z
" transform="scale(0.015625)"/>
       <path id="BarlowSemiCondensed-Regular-e6" d="M 2189 3174 
Q 2189 3238 2253 3238 
L 2579 3238 
Q 2643 3238 2643 3174 
L 2643 90 
Q 2643 -1357 1062 -1286 
Q 998 -1280 998 -1216 
L 1005 -928 
Q 1005 -896 1024 -880 
Q 1043 -864 1069 -870 
Q 1670 -890 1929 -650 
Q 2189 -410 2189 115 
L 2189 326 
Q 2189 339 2179 345 
Q 2170 352 2157 339 
Q 1907 -19 1414 -19 
Q 1005 -19 729 227 
Q 454 474 390 896 
Q 352 1178 352 1619 
Q 352 2099 397 2374 
Q 448 2790 720 3040 
Q 992 3290 1402 3290 
Q 1901 3290 2157 2938 
Q 2170 2925 2179 2928 
Q 2189 2931 2189 2944 
L 2189 3174 
z
M 2170 986 
Q 2189 1235 2189 1626 
Q 2189 2010 2170 2278 
Q 2144 2547 1968 2720 
Q 1792 2893 1517 2893 
Q 1242 2893 1059 2720 
Q 877 2547 838 2278 
Q 813 2048 813 1626 
Q 813 1306 838 986 
Q 870 717 1056 544 
Q 1242 371 1517 371 
Q 1792 371 1968 544 
Q 2144 717 2170 986 
z
" transform="scale(0.015625)"/>
       <path id="BarlowSemiCondensed-Regular-d0" d="M 1542 346 
Q 1786 346 1962 470 
Q 2138 595 2214 806 
Q 2234 864 2291 851 
L 2586 794 
Q 2618 787 2627 764 
Q 2637 742 2630 717 
Q 2522 358 2234 153 
Q 1946 -51 1536 -51 
Q 1069 -51 774 195 
Q 480 442 410 864 
Q 384 1024 377 1241 
Q 371 1459 371 1603 
Q 371 1747 371 1805 
Q 371 2131 397 2336 
Q 448 2765 752 3027 
Q 1056 3290 1517 3290 
Q 2010 3290 2317 3008 
Q 2624 2726 2662 2266 
Q 2682 2054 2682 1491 
Q 2682 1427 2618 1427 
L 851 1427 
Q 826 1427 826 1402 
Q 826 1203 838 960 
Q 870 685 1059 515 
Q 1248 346 1542 346 
z
M 1523 2893 
Q 1235 2893 1052 2723 
Q 870 2554 838 2278 
Q 826 2010 826 1830 
Q 826 1805 851 1805 
L 2202 1805 
Q 2227 1805 2227 1830 
Q 2227 2016 2202 2272 
Q 2170 2547 1987 2720 
Q 1805 2893 1523 2893 
z
" transform="scale(0.015625)"/>
       <path id="BarlowSemiCondensed-Regular-3" transform="scale(0.015625)"/>
       <path id="BarlowSemiCondensed-Regular-134" d="M 1747 2944 
Q 1747 2880 1683 2880 
L 1075 2880 
Q 1050 2880 1050 2854 
L 1050 934 
Q 1050 634 1168 515 
Q 1286 397 1549 397 
L 1658 397 
Q 1722 397 1722 333 
L 1722 64 
Q 1722 0 1658 0 
L 1459 -6 
Q 1043 -6 825 163 
Q 608 333 608 794 
L 608 2854 
Q 608 2880 582 2880 
L 262 2880 
Q 198 2880 198 2944 
L 198 3174 
Q 198 3238 262 3238 
L 582 3238 
Q 608 3238 608 3264 
L 608 3994 
Q 608 4058 672 4058 
L 986 4058 
Q 1050 4058 1050 3994 
L 1050 3264 
Q 1050 3238 1075 3238 
L 1683 3238 
Q 1747 3238 1747 3174 
L 1747 2944 
z
" transform="scale(0.015625)"/>
       <path id="BarlowSemiCondensed-Regular-10f" d="M 1536 -51 
Q 1069 -51 768 201 
Q 467 454 403 883 
Q 365 1203 365 1626 
Q 365 2048 403 2355 
Q 461 2778 765 3034 
Q 1069 3290 1536 3290 
Q 2003 3290 2307 3034 
Q 2611 2778 2669 2355 
Q 2707 2099 2707 1626 
Q 2707 1139 2669 883 
Q 2611 454 2307 201 
Q 2003 -51 1536 -51 
z
M 1536 346 
Q 1811 346 2000 515 
Q 2189 685 2227 966 
Q 2253 1203 2253 1619 
Q 2253 2042 2227 2272 
Q 2195 2554 2006 2723 
Q 1818 2893 1536 2893 
Q 1254 2893 1068 2723 
Q 883 2554 845 2272 
Q 819 2042 819 1619 
Q 819 1197 845 966 
Q 877 685 1065 515 
Q 1254 346 1536 346 
z
" transform="scale(0.015625)"/>
       <path id="BarlowSemiCondensed-Regular-ec" d="M 1702 3283 
Q 2150 3283 2409 2998 
Q 2669 2714 2669 2221 
L 2669 64 
Q 2669 0 2605 0 
L 2278 0 
Q 2214 0 2214 64 
L 2214 2157 
Q 2214 2490 2041 2688 
Q 1869 2886 1568 2886 
Q 1267 2886 1084 2684 
Q 902 2483 902 2144 
L 902 64 
Q 902 0 838 0 
L 512 0 
Q 448 0 448 64 
L 448 4416 
Q 448 4480 512 4480 
L 838 4480 
Q 902 4480 902 4416 
L 902 2925 
Q 902 2912 912 2905 
Q 922 2899 934 2912 
Q 1184 3283 1702 3283 
z
" transform="scale(0.015625)"/>
       <path id="BarlowSemiCondensed-Regular-219" d="M 397 -506 
Q 365 -506 349 -486 
Q 333 -467 339 -435 
L 576 934 
Q 589 992 646 992 
L 934 992 
Q 966 992 982 973 
Q 998 954 986 922 
L 666 -448 
Q 653 -506 595 -506 
L 397 -506 
z
" transform="scale(0.015625)"/>
       <path id="BarlowSemiCondensed-Regular-101" d="M 512 0 
Q 448 0 448 64 
L 448 4416 
Q 448 4480 512 4480 
L 838 4480 
Q 902 4480 902 4416 
L 902 1818 
Q 902 1805 915 1798 
Q 928 1792 934 1805 
L 2093 3200 
Q 2125 3238 2170 3238 
L 2534 3238 
Q 2573 3238 2585 3216 
Q 2598 3194 2573 3162 
L 1843 2253 
Q 1830 2234 1837 2221 
L 2701 77 
L 2707 51 
Q 2707 0 2650 0 
L 2310 0 
Q 2259 0 2240 51 
L 1542 1882 
Q 1536 1894 1523 1897 
Q 1510 1901 1504 1888 
L 915 1178 
Q 902 1152 902 1146 
L 902 64 
Q 902 0 838 0 
L 512 0 
z
" transform="scale(0.015625)"/>
       <path id="BarlowSemiCondensed-Regular-109" d="M 3386 3283 
Q 3814 3283 4060 2998 
Q 4307 2714 4307 2214 
L 4307 64 
Q 4307 0 4243 0 
L 3923 0 
Q 3859 0 3859 64 
L 3859 2150 
Q 3859 2490 3689 2688 
Q 3520 2886 3245 2886 
Q 2957 2886 2781 2691 
Q 2605 2496 2605 2163 
L 2605 64 
Q 2605 0 2541 0 
L 2214 0 
Q 2150 0 2150 64 
L 2150 2150 
Q 2150 2490 1980 2688 
Q 1811 2886 1536 2886 
Q 1248 2886 1075 2691 
Q 902 2496 902 2163 
L 902 64 
Q 902 0 838 0 
L 512 0 
Q 448 0 448 64 
L 448 3174 
Q 448 3238 512 3238 
L 838 3238 
Q 902 3238 902 3174 
L 902 2950 
Q 902 2938 912 2934 
Q 922 2931 934 2944 
Q 1062 3117 1260 3200 
Q 1459 3283 1683 3283 
Q 1965 3283 2176 3155 
Q 2387 3027 2496 2797 
Q 2509 2765 2528 2797 
Q 2656 3046 2883 3164 
Q 3110 3283 3386 3283 
z
" transform="scale(0.015625)"/>
       <path id="BarlowSemiCondensed-Regular-227" d="M 685 -666 
Q 634 -666 608 -621 
Q 326 -147 150 569 
Q -26 1286 -26 2080 
Q -26 2886 153 3619 
Q 333 4352 621 4838 
Q 646 4883 698 4883 
L 1005 4883 
Q 1037 4883 1049 4860 
Q 1062 4838 1050 4806 
Q 806 4307 649 3587 
Q 493 2867 493 2086 
Q 493 1325 649 614 
Q 806 -96 1050 -589 
Q 1056 -602 1056 -621 
Q 1056 -666 1005 -666 
L 685 -666 
z
" transform="scale(0.015625)"/>
       <path id="BarlowSemiCondensed-Regular-cc" d="M 2195 4416 
Q 2195 4480 2259 4480 
L 2586 4480 
Q 2650 4480 2650 4416 
L 2650 64 
Q 2650 0 2586 0 
L 2259 0 
Q 2195 0 2195 64 
L 2195 320 
Q 2195 339 2185 339 
Q 2176 339 2163 326 
Q 1926 -51 1421 -51 
Q 1018 -51 778 163 
Q 538 378 422 845 
Q 339 1197 339 1587 
Q 339 2035 410 2349 
Q 506 2829 765 3056 
Q 1024 3283 1453 3283 
Q 1722 3283 1891 3190 
Q 2061 3098 2163 2912 
Q 2170 2893 2182 2896 
Q 2195 2899 2195 2918 
L 2195 4416 
z
M 2086 813 
Q 2182 1101 2182 1619 
Q 2182 2144 2080 2445 
Q 2003 2662 1872 2777 
Q 1741 2893 1523 2893 
Q 1101 2893 922 2458 
Q 800 2138 800 1619 
Q 800 1101 902 819 
Q 986 582 1130 460 
Q 1274 339 1517 339 
Q 1741 339 1875 460 
Q 2010 582 2086 813 
z
" transform="scale(0.015625)"/>
       <path id="BarlowSemiCondensed-Regular-12e" d="M 1402 -32 
Q 909 -32 608 205 
Q 307 442 307 813 
L 307 870 
Q 307 934 371 934 
L 685 934 
Q 749 934 749 870 
L 749 826 
Q 749 621 931 470 
Q 1114 320 1402 320 
Q 1683 320 1856 467 
Q 2029 614 2029 838 
Q 2029 998 1933 1107 
Q 1837 1216 1696 1280 
Q 1555 1344 1306 1427 
Q 1005 1530 806 1632 
Q 608 1734 470 1916 
Q 333 2099 333 2381 
Q 333 2790 621 3030 
Q 909 3270 1382 3270 
Q 1869 3270 2160 3020 
Q 2451 2771 2451 2381 
L 2451 2368 
Q 2451 2304 2387 2304 
L 2093 2304 
Q 2029 2304 2029 2368 
L 2029 2394 
Q 2029 2611 1853 2755 
Q 1677 2899 1382 2899 
Q 1107 2899 937 2761 
Q 768 2624 768 2406 
Q 768 2182 937 2067 
Q 1107 1952 1472 1824 
Q 1786 1722 1990 1619 
Q 2195 1517 2339 1334 
Q 2483 1152 2483 864 
Q 2483 454 2188 211 
Q 1894 -32 1402 -32 
z
" transform="scale(0.015625)"/>
       <path id="BarlowSemiCondensed-Regular-21a" d="M 883 2208 
Q 723 2208 624 2310 
Q 525 2413 525 2567 
Q 525 2727 624 2826 
Q 723 2925 883 2925 
Q 1037 2925 1139 2826 
Q 1241 2727 1241 2567 
Q 1241 2413 1139 2310 
Q 1037 2208 883 2208 
z
M 883 57 
Q 723 57 624 159 
Q 525 262 525 416 
Q 525 576 624 675 
Q 723 774 883 774 
Q 1037 774 1139 675 
Q 1241 576 1241 416 
Q 1241 262 1139 159 
Q 1037 57 883 57 
z
" transform="scale(0.015625)"/>
       <path id="BarlowSemiCondensed-Regular-f0" d="M 742 3827 
Q 582 3827 483 3929 
Q 384 4032 384 4186 
Q 384 4346 483 4445 
Q 582 4544 742 4544 
Q 896 4544 998 4445 
Q 1101 4346 1101 4186 
Q 1101 4032 998 3929 
Q 896 3827 742 3827 
z
M 570 0 
Q 506 0 506 64 
L 506 3174 
Q 506 3238 570 3238 
L 896 3238 
Q 960 3238 960 3174 
L 960 64 
Q 960 0 896 0 
L 570 0 
z
" transform="scale(0.015625)"/>
       <path id="BarlowSemiCondensed-Regular-161" d="M 275 0 
Q 211 0 211 64 
L 211 371 
Q 211 422 237 454 
L 1805 2790 
Q 1811 2797 1804 2809 
Q 1798 2822 1786 2822 
L 301 2822 
Q 237 2822 237 2886 
L 237 3174 
Q 237 3238 301 3238 
L 2291 3238 
Q 2355 3238 2355 3174 
L 2355 2867 
Q 2355 2816 2330 2784 
L 749 448 
Q 742 442 748 429 
Q 755 416 768 416 
L 2298 416 
Q 2362 416 2362 352 
L 2362 64 
Q 2362 0 2298 0 
L 275 0 
z
" transform="scale(0.015625)"/>
       <path id="BarlowSemiCondensed-Regular-228" d="M 858 4883 
Q 909 4883 934 4838 
Q 1216 4365 1392 3648 
Q 1568 2931 1568 2138 
Q 1568 1325 1389 592 
Q 1210 -141 922 -621 
Q 896 -666 845 -666 
L 538 -666 
Q 506 -666 493 -643 
Q 480 -621 493 -589 
Q 736 -90 893 630 
Q 1050 1350 1050 2125 
Q 1050 2893 893 3603 
Q 736 4314 493 4806 
Q 486 4819 486 4838 
Q 486 4883 538 4883 
L 858 4883 
z
" transform="scale(0.015625)"/>
      </defs>
      <use xlink:href="#BarlowSemiCondensed-Regular-12b"/>
      <use xlink:href="#BarlowSemiCondensed-Regular-ad" transform="translate(32.703125 0)"/>
      <use xlink:href="#BarlowSemiCondensed-Regular-10a" transform="translate(78.90625 0)"/>
      <use xlink:href="#BarlowSemiCondensed-Regular-e6" transform="translate(127.109375 0)"/>
      <use xlink:href="#BarlowSemiCondensed-Regular-d0" transform="translate(174.515625 0)"/>
      <use xlink:href="#BarlowSemiCondensed-Regular-3" transform="translate(221.515625 0)"/>
      <use xlink:href="#BarlowSemiCondensed-Regular-134" transform="translate(241.515625 0)"/>
      <use xlink:href="#BarlowSemiCondensed-Regular-10f" transform="translate(272.3125 0)"/>
      <use xlink:href="#BarlowSemiCondensed-Regular-3" transform="translate(320.3125 0)"/>
      <use xlink:href="#BarlowSemiCondensed-Regular-134" transform="translate(340.3125 0)"/>
      <use xlink:href="#BarlowSemiCondensed-Regular-ec" transform="translate(371.8125 0)"/>
      <use xlink:href="#BarlowSemiCondensed-Regular-d0" transform="translate(419.609375 0)"/>
      <use xlink:href="#BarlowSemiCondensed-Regular-3" transform="translate(466.609375 0)"/>
      <use xlink:href="#BarlowSemiCondensed-Regular-134" transform="translate(486.609375 0)"/>
      <use xlink:href="#BarlowSemiCondensed-Regular-ad" transform="translate(518.109375 0)"/>
      <use xlink:href="#BarlowSemiCondensed-Regular-12b" transform="translate(564.3125 0)"/>
      <use xlink:href="#BarlowSemiCondensed-Regular-e6" transform="translate(596.421875 0)"/>
      <use xlink:href="#BarlowSemiCondensed-Regular-d0" transform="translate(643.828125 0)"/>
      <use xlink:href="#BarlowSemiCondensed-Regular-134" transform="translate(690.328125 0)"/>
      <use xlink:href="#BarlowSemiCondensed-Regular-219" transform="translate(721.828125 0)"/>
      <use xlink:href="#BarlowSemiCondensed-Regular-3" transform="translate(743.921875 0)"/>
      <use xlink:href="#BarlowSemiCondensed-Regular-101" transform="translate(763.921875 0)"/>
      <use xlink:href="#BarlowSemiCondensed-Regular-109" transform="translate(809.21875 0)"/>
      <use xlink:href="#BarlowSemiCondensed-Regular-3" transform="translate(882.921875 0)"/>
      <use xlink:href="#BarlowSemiCondensed-Regular-227" transform="translate(902.921875 0)"/>
      <use xlink:href="#BarlowSemiCondensed-Regular-cc" transform="translate(927.015625 0)"/>
      <use xlink:href="#BarlowSemiCondensed-Regular-10f" transform="translate(975.421875 0)"/>
      <use xlink:href="#BarlowSemiCondensed-Regular-134" transform="translate(1023.125 0)"/>
      <use xlink:href="#BarlowSemiCondensed-Regular-12e" transform="translate(1054.625 0)"/>
      <use xlink:href="#BarlowSemiCondensed-Regular-21a" transform="translate(1097.421875 0)"/>
      <use xlink:href="#BarlowSemiCondensed-Regular-3" transform="translate(1124.921875 0)"/>
      <use xlink:href="#BarlowSemiCondensed-Regular-134" transform="translate(1144.921875 0)"/>
      <use xlink:href="#BarlowSemiCondensed-Regular-ec" transform="translate(1176.421875 0)"/>
      <use xlink:href="#BarlowSemiCondensed-Regular-d0" transform="translate(1224.21875 0)"/>
      <use xlink:href="#BarlowSemiCondensed-Regular-3" transform="translate(1271.21875 0)"/>
      <use xlink:href="#BarlowSemiCondensed-Regular-ec" transform="translate(1291.21875 0)"/>
      <use xlink:href="#BarlowSemiCondensed-Regular-10f" transform="translate(1339.015625 0)"/>
      <use xlink:href="#BarlowSemiCondensed-Regular-12b" transform="translate(1387.015625 0)"/>
      <use xlink:href="#BarlowSemiCondensed-Regular-f0" transform="translate(1419.921875 0)"/>
      <use xlink:href="#BarlowSemiCondensed-Regular-161" transform="translate(1443.125 0)"/>
      <use xlink:href="#BarlowSemiCondensed-Regular-10f" transform="translate(1483.421875 0)"/>
      <use xlink:href="#BarlowSemiCondensed-Regular-10a" transform="translate(1531.421875 0)"/>
      <use xlink:href="#BarlowSemiCondensed-Regular-228" transform="translate(1579.625 0)"/>
     </g>
    </g>
   </g>
   <g id="matplotlib.axis_2">
    <g id="ytick_1">
     <g id="line2d_13">
      <path d="M 37.090396 217.066832 
L 510.33351 217.066832 
" clip-path="url(#p1098b0e63c)" style="fill: none; stroke: #dfded9; stroke-width: 0.8; stroke-linecap: square"/>
     </g>
     <g id="line2d_14">
      <defs>
       <path id="m9abacf099b" d="M 0 0 
L -3.5 0 
" style="stroke: #7b9194; stroke-width: 0.8"/>
      </defs>
      <g>
       <use xlink:href="#m9abacf099b" x="37.090396" y="217.066832" style="fill: #7b9194; stroke: #7b9194; stroke-width: 0.8"/>
      </g>
     </g>
     <g id="text_8">
      <!-- 0 -->
      <g transform="translate(24.79774 222.316832) scale(0.105 -0.105)">
       <use xlink:href="#BarlowSemiCondensed-Regular-1df"/>
      </g>
     </g>
    </g>
    <g id="ytick_2">
     <g id="line2d_15">
      <path d="M 37.090396 195.658568 
L 510.33351 195.658568 
" clip-path="url(#p1098b0e63c)" style="fill: none; stroke: #dfded9; stroke-width: 0.8; stroke-linecap: square"/>
     </g>
     <g id="line2d_16">
      <g>
       <use xlink:href="#m9abacf099b" x="37.090396" y="195.658568" style="fill: #7b9194; stroke: #7b9194; stroke-width: 0.8"/>
      </g>
     </g>
     <g id="text_9">
      <!-- 10 -->
      <g transform="translate(21.616568 200.908568) scale(0.105 -0.105)">
       <use xlink:href="#BarlowSemiCondensed-Regular-1e0"/>
       <use xlink:href="#BarlowSemiCondensed-Regular-1df" transform="translate(30.296875 0)"/>
      </g>
     </g>
    </g>
    <g id="ytick_3">
     <g id="line2d_17">
      <path d="M 37.090396 174.250304 
L 510.33351 174.250304 
" clip-path="url(#p1098b0e63c)" style="fill: none; stroke: #dfded9; stroke-width: 0.8; stroke-linecap: square"/>
     </g>
     <g id="line2d_18">
      <g>
       <use xlink:href="#m9abacf099b" x="37.090396" y="174.250304" style="fill: #7b9194; stroke: #7b9194; stroke-width: 0.8"/>
      </g>
     </g>
     <g id="text_10">
      <!-- 20 -->
      <g transform="translate(19.872584 179.500304) scale(0.105 -0.105)">
       <use xlink:href="#BarlowSemiCondensed-Regular-1e1"/>
       <use xlink:href="#BarlowSemiCondensed-Regular-1df" transform="translate(46.90625 0)"/>
      </g>
     </g>
    </g>
    <g id="ytick_4">
     <g id="line2d_19">
      <path d="M 37.090396 152.84204 
L 510.33351 152.84204 
" clip-path="url(#p1098b0e63c)" style="fill: none; stroke: #dfded9; stroke-width: 0.8; stroke-linecap: square"/>
     </g>
     <g id="line2d_20">
      <g>
       <use xlink:href="#m9abacf099b" x="37.090396" y="152.84204" style="fill: #7b9194; stroke: #7b9194; stroke-width: 0.8"/>
      </g>
     </g>
     <g id="text_11">
      <!-- 30 -->
      <g transform="translate(19.946412 158.09204) scale(0.105 -0.105)">
       <use xlink:href="#BarlowSemiCondensed-Regular-1e2"/>
       <use xlink:href="#BarlowSemiCondensed-Regular-1df" transform="translate(46.203125 0)"/>
      </g>
     </g>
    </g>
    <g id="ytick_5">
     <g id="line2d_21">
      <path d="M 37.090396 131.433776 
L 510.33351 131.433776 
" clip-path="url(#p1098b0e63c)" style="fill: none; stroke: #dfded9; stroke-width: 0.8; stroke-linecap: square"/>
     </g>
     <g id="line2d_22">
      <g>
       <use xlink:href="#m9abacf099b" x="37.090396" y="131.433776" style="fill: #7b9194; stroke: #7b9194; stroke-width: 0.8"/>
      </g>
     </g>
     <g id="text_12">
      <!-- 40 -->
      <g transform="translate(19.726568 136.683776) scale(0.105 -0.105)">
       <use xlink:href="#BarlowSemiCondensed-Regular-1e3"/>
       <use xlink:href="#BarlowSemiCondensed-Regular-1df" transform="translate(48.296875 0)"/>
      </g>
     </g>
    </g>
    <g id="ytick_6">
     <g id="line2d_23">
      <path d="M 37.090396 110.025512 
L 510.33351 110.025512 
" clip-path="url(#p1098b0e63c)" style="fill: none; stroke: #dfded9; stroke-width: 0.8; stroke-linecap: square"/>
     </g>
     <g id="line2d_24">
      <g>
       <use xlink:href="#m9abacf099b" x="37.090396" y="110.025512" style="fill: #7b9194; stroke: #7b9194; stroke-width: 0.8"/>
      </g>
     </g>
     <g id="text_13">
      <!-- 50 -->
      <g transform="translate(19.957896 115.275512) scale(0.105 -0.105)">
       <use xlink:href="#BarlowSemiCondensed-Regular-1e4"/>
       <use xlink:href="#BarlowSemiCondensed-Regular-1df" transform="translate(46.09375 0)"/>
      </g>
     </g>
    </g>
    <g id="ytick_7">
     <g id="line2d_25">
      <path d="M 37.090396 88.617248 
L 510.33351 88.617248 
" clip-path="url(#p1098b0e63c)" style="fill: none; stroke: #dfded9; stroke-width: 0.8; stroke-linecap: square"/>
     </g>
     <g id="line2d_26">
      <g>
       <use xlink:href="#m9abacf099b" x="37.090396" y="88.617248" style="fill: #7b9194; stroke: #7b9194; stroke-width: 0.8"/>
      </g>
     </g>
     <g id="text_14">
      <!-- 60 -->
      <g transform="translate(19.946412 93.867248) scale(0.105 -0.105)">
       <defs>
        <path id="BarlowSemiCondensed-Regular-1e5" d="M 2592 2022 
Q 2682 1773 2682 1370 
Q 2682 1024 2618 813 
Q 2522 397 2246 173 
Q 1971 -51 1536 -51 
Q 1126 -51 854 157 
Q 582 365 474 742 
Q 378 1024 378 1363 
L 378 3411 
Q 378 3923 694 4227 
Q 1011 4531 1517 4531 
Q 1997 4531 2297 4230 
Q 2598 3930 2598 3437 
L 2598 3341 
Q 2598 3277 2534 3277 
L 2208 3277 
Q 2144 3277 2144 3341 
L 2144 3411 
Q 2144 3731 1965 3929 
Q 1786 4128 1510 4128 
Q 1216 4128 1024 3926 
Q 832 3725 832 3386 
L 832 2445 
Q 832 2426 841 2422 
Q 851 2419 864 2432 
Q 1101 2790 1587 2790 
Q 1978 2790 2230 2592 
Q 2483 2394 2592 2022 
z
M 2182 928 
Q 2227 1139 2227 1382 
Q 2227 1690 2163 1901 
Q 2099 2144 1936 2278 
Q 1773 2413 1523 2413 
Q 1280 2413 1117 2272 
Q 954 2131 890 1888 
Q 832 1677 832 1376 
Q 832 1146 877 909 
Q 934 646 1104 499 
Q 1274 352 1530 352 
Q 1779 352 1948 499 
Q 2118 646 2182 928 
z
" transform="scale(0.015625)"/>
       </defs>
       <use xlink:href="#BarlowSemiCondensed-Regular-1e5"/>
       <use xlink:href="#BarlowSemiCondensed-Regular-1df" transform="translate(46.203125 0)"/>
      </g>
     </g>
    </g>
    <g id="ytick_8">
     <g id="line2d_27">
      <path d="M 37.090396 67.208984 
L 510.33351 67.208984 
" clip-path="url(#p1098b0e63c)" style="fill: none; stroke: #dfded9; stroke-width: 0.8; stroke-linecap: square"/>
     </g>
     <g id="line2d_28">
      <g>
       <use xlink:href="#m9abacf099b" x="37.090396" y="67.208984" style="fill: #7b9194; stroke: #7b9194; stroke-width: 0.8"/>
      </g>
     </g>
     <g id="text_15">
      <!-- 70 -->
      <g transform="translate(20.397584 72.458984) scale(0.105 -0.105)">
       <defs>
        <path id="BarlowSemiCondensed-Regular-1e6" d="M 838 0 
Q 768 0 787 70 
L 2074 4051 
Q 2080 4064 2070 4073 
Q 2061 4083 2048 4083 
L 602 4083 
Q 576 4083 576 4058 
L 576 3782 
Q 576 3718 512 3718 
L 256 3718 
Q 192 3718 192 3782 
L 192 4416 
Q 192 4480 256 4480 
L 2496 4480 
Q 2560 4480 2560 4416 
L 2560 4122 
Q 2560 4096 2547 4045 
L 1267 51 
Q 1248 0 1190 0 
L 838 0 
z
" transform="scale(0.015625)"/>
       </defs>
       <use xlink:href="#BarlowSemiCondensed-Regular-1e6"/>
       <use xlink:href="#BarlowSemiCondensed-Regular-1df" transform="translate(41.90625 0)"/>
      </g>
     </g>
    </g>
    <g id="ytick_9">
     <g id="line2d_29">
      <path d="M 37.090396 45.80072 
L 510.33351 45.80072 
" clip-path="url(#p1098b0e63c)" style="fill: none; stroke: #dfded9; stroke-width: 0.8; stroke-linecap: square"/>
     </g>
     <g id="line2d_30">
      <g>
       <use xlink:href="#m9abacf099b" x="37.090396" y="45.80072" style="fill: #7b9194; stroke: #7b9194; stroke-width: 0.8"/>
      </g>
     </g>
     <g id="text_16">
      <!-- 80 -->
      <g transform="translate(19.841412 51.05072) scale(0.105 -0.105)">
       <defs>
        <path id="BarlowSemiCondensed-Regular-1e7" d="M 2528 1933 
Q 2656 1645 2656 1254 
Q 2656 851 2515 570 
Q 2387 275 2124 112 
Q 1862 -51 1510 -51 
Q 1158 -51 892 115 
Q 627 282 493 582 
Q 358 870 358 1254 
Q 358 1626 480 1920 
Q 602 2214 902 2368 
Q 934 2381 902 2400 
Q 685 2522 557 2739 
Q 384 3021 384 3379 
Q 384 3750 550 4026 
Q 685 4269 937 4406 
Q 1190 4544 1510 4544 
Q 1837 4544 2080 4413 
Q 2323 4282 2464 4032 
Q 2630 3757 2630 3379 
Q 2630 3021 2464 2739 
Q 2349 2541 2118 2406 
Q 2086 2387 2118 2374 
Q 2400 2227 2528 1933 
z
M 934 3782 
Q 838 3603 838 3360 
Q 838 3098 954 2886 
Q 1037 2733 1177 2649 
Q 1318 2566 1504 2566 
Q 1696 2566 1843 2656 
Q 1990 2746 2074 2906 
Q 2176 3091 2176 3366 
Q 2176 3622 2080 3795 
Q 1997 3962 1849 4054 
Q 1702 4147 1504 4147 
Q 1306 4147 1158 4051 
Q 1011 3955 934 3782 
z
M 2099 749 
Q 2202 973 2202 1280 
Q 2202 1587 2112 1805 
Q 2035 1997 1878 2102 
Q 1722 2208 1504 2208 
Q 1075 2208 902 1805 
Q 813 1587 813 1280 
Q 813 960 915 749 
Q 992 557 1145 451 
Q 1299 346 1510 346 
Q 1926 346 2099 749 
z
" transform="scale(0.015625)"/>
       </defs>
       <use xlink:href="#BarlowSemiCondensed-Regular-1e7"/>
       <use xlink:href="#BarlowSemiCondensed-Regular-1df" transform="translate(47.203125 0)"/>
      </g>
     </g>
    </g>
    <g id="text_17">
     <!-- height hidden by the sea, m -->
     <g transform="translate(13.50024 186.822917) rotate(-90) scale(0.105 -0.105)">
      <defs>
       <path id="BarlowSemiCondensed-Regular-c5" d="M 2694 2349 
Q 2758 2022 2758 1587 
Q 2758 1197 2675 845 
Q 2560 378 2320 163 
Q 2080 -51 1677 -51 
Q 1171 -51 941 314 
Q 934 333 921 329 
Q 909 326 909 307 
L 909 64 
Q 909 0 845 0 
L 518 0 
Q 454 0 454 64 
L 454 4416 
Q 454 4480 518 4480 
L 845 4480 
Q 909 4480 909 4416 
L 909 2931 
Q 909 2912 921 2909 
Q 934 2906 941 2925 
Q 1037 3104 1206 3193 
Q 1376 3283 1645 3283 
Q 2074 3283 2333 3056 
Q 2592 2829 2694 2349 
z
M 2202 819 
Q 2298 1107 2298 1619 
Q 2298 2138 2176 2458 
Q 1997 2893 1574 2893 
Q 1357 2893 1229 2777 
Q 1101 2662 1024 2445 
Q 915 2150 915 1619 
Q 915 1101 1011 813 
Q 1088 582 1225 460 
Q 1363 339 1587 339 
Q 1824 339 1971 460 
Q 2118 582 2202 819 
z
" transform="scale(0.015625)"/>
       <path id="BarlowSemiCondensed-Regular-159" d="M 326 -1280 
Q 282 -1280 282 -1216 
L 282 -960 
Q 282 -896 346 -896 
L 358 -896 
Q 582 -890 707 -819 
Q 832 -749 918 -569 
Q 1005 -390 1094 -19 
Q 1101 -13 1097 3 
Q 1094 19 1094 19 
L 141 3168 
L 134 3187 
Q 134 3238 198 3238 
L 544 3238 
Q 602 3238 614 3181 
L 1312 627 
Q 1318 614 1328 614 
Q 1338 614 1344 627 
L 2042 3181 
Q 2054 3238 2112 3238 
L 2451 3238 
Q 2483 3238 2499 3219 
Q 2515 3200 2509 3168 
L 1466 -282 
Q 1338 -710 1213 -915 
Q 1088 -1120 899 -1200 
Q 710 -1280 365 -1280 
L 326 -1280 
z
" transform="scale(0.015625)"/>
      </defs>
      <use xlink:href="#BarlowSemiCondensed-Regular-ec"/>
      <use xlink:href="#BarlowSemiCondensed-Regular-d0" transform="translate(47.796875 0)"/>
      <use xlink:href="#BarlowSemiCondensed-Regular-f0" transform="translate(94.796875 0)"/>
      <use xlink:href="#BarlowSemiCondensed-Regular-e6" transform="translate(118 0)"/>
      <use xlink:href="#BarlowSemiCondensed-Regular-ec" transform="translate(165.40625 0)"/>
      <use xlink:href="#BarlowSemiCondensed-Regular-134" transform="translate(213.609375 0)"/>
      <use xlink:href="#BarlowSemiCondensed-Regular-3" transform="translate(245.109375 0)"/>
      <use xlink:href="#BarlowSemiCondensed-Regular-ec" transform="translate(265.109375 0)"/>
      <use xlink:href="#BarlowSemiCondensed-Regular-f0" transform="translate(313.3125 0)"/>
      <use xlink:href="#BarlowSemiCondensed-Regular-cc" transform="translate(336.515625 0)"/>
      <use xlink:href="#BarlowSemiCondensed-Regular-cc" transform="translate(384.921875 0)"/>
      <use xlink:href="#BarlowSemiCondensed-Regular-d0" transform="translate(433.328125 0)"/>
      <use xlink:href="#BarlowSemiCondensed-Regular-10a" transform="translate(480.328125 0)"/>
      <use xlink:href="#BarlowSemiCondensed-Regular-3" transform="translate(528.53125 0)"/>
      <use xlink:href="#BarlowSemiCondensed-Regular-c5" transform="translate(548.53125 0)"/>
      <use xlink:href="#BarlowSemiCondensed-Regular-159" transform="translate(596.34375 0)"/>
      <use xlink:href="#BarlowSemiCondensed-Regular-3" transform="translate(637.75 0)"/>
      <use xlink:href="#BarlowSemiCondensed-Regular-134" transform="translate(657.75 0)"/>
      <use xlink:href="#BarlowSemiCondensed-Regular-ec" transform="translate(689.25 0)"/>
      <use xlink:href="#BarlowSemiCondensed-Regular-d0" transform="translate(737.046875 0)"/>
      <use xlink:href="#BarlowSemiCondensed-Regular-3" transform="translate(784.046875 0)"/>
      <use xlink:href="#BarlowSemiCondensed-Regular-12e" transform="translate(804.046875 0)"/>
      <use xlink:href="#BarlowSemiCondensed-Regular-d0" transform="translate(846.84375 0)"/>
      <use xlink:href="#BarlowSemiCondensed-Regular-ad" transform="translate(893.4375 0)"/>
      <use xlink:href="#BarlowSemiCondensed-Regular-219" transform="translate(939.234375 0)"/>
      <use xlink:href="#BarlowSemiCondensed-Regular-3" transform="translate(961.328125 0)"/>
      <use xlink:href="#BarlowSemiCondensed-Regular-109" transform="translate(981.328125 0)"/>
     </g>
    </g>
   </g>
   <g id="line2d_31">
    <path d="M 100.632057 217.065779 
L 109.167504 216.924534 
L 117.702951 216.54554 
L 126.238398 215.928798 
L 134.773845 215.074309 
L 143.309292 213.982071 
L 151.844738 212.652085 
L 160.380185 211.084351 
L 168.915632 209.278868 
L 177.451079 207.235638 
L 185.986526 204.95466 
L 194.521973 202.435933 
L 203.05742 199.679459 
L 211.592867 196.685236 
L 220.128314 193.453265 
L 228.663761 189.983547 
L 237.199208 186.27608 
L 245.734655 182.330865 
L 254.270102 178.147902 
L 262.805549 173.72719 
L 271.340996 169.068731 
L 279.876443 164.172524 
L 288.41189 159.038568 
L 296.947336 153.666865 
L 306.431166 147.419465 
L 315.914996 140.878549 
L 325.398826 134.044117 
L 334.882656 126.916168 
L 344.366486 119.494704 
L 353.850316 111.779723 
L 363.334146 103.771227 
L 372.817976 95.469214 
L 382.301806 86.873685 
L 391.785636 77.984639 
L 401.269466 68.802078 
L 410.753296 59.326 
L 420.237126 49.556406 
L 429.720956 39.493297 
L 440.153168 28.084864 
L 450.585381 16.321278 
L 461.017594 4.202537 
L 465.404501 -1 
L 465.404501 -1 
" clip-path="url(#p1098b0e63c)" style="fill: none; stroke: #cb0d00; stroke-width: 2; stroke-linecap: square"/>
   </g>
   <g id="line2d_32">
    <defs>
     <path id="me2ab51b9fc" d="M 0 4 
C 1.060812 4 2.078319 3.578535 2.828427 2.828427 
C 3.578535 2.078319 4 1.060812 4 0 
C 4 -1.060812 3.578535 -2.078319 2.828427 -2.828427 
C 2.078319 -3.578535 1.060812 -4 0 -4 
C -1.060812 -4 -2.078319 -3.578535 -2.828427 -2.828427 
C -3.578535 -2.078319 -4 -1.060812 -4 0 
C -4 1.060812 -3.578535 2.078319 -2.828427 2.828427 
C -2.078319 3.578535 -1.060812 4 0 4 
z
" style="stroke: #ffffff; stroke-width: 2"/>
    </defs>
    <g clip-path="url(#p1098b0e63c)">
     <use xlink:href="#me2ab51b9fc" x="99.828892" y="217.066832" style="fill: #cb0d00; stroke: #ffffff; stroke-width: 2"/>
    </g>
   </g>
   <g id="line2d_33">
    <path d="M 163.225334 217.066126 
L 171.760781 216.928925 
L 180.296228 216.553976 
L 188.831675 215.941279 
L 197.367122 215.090835 
L 205.902569 214.002642 
L 214.438016 212.6767 
L 222.973463 211.113011 
L 231.50891 209.311574 
L 240.044357 207.272389 
L 248.579804 204.995455 
L 257.115251 202.480774 
L 265.650698 199.728344 
L 274.186145 196.738166 
L 282.721592 193.510241 
L 291.257039 190.044567 
L 299.792485 186.341145 
L 308.327932 182.399975 
L 316.863379 178.221057 
L 325.398826 173.80439 
L 333.934273 169.149976 
L 342.46972 164.257814 
L 351.005167 159.127903 
L 359.540614 153.760244 
L 369.024444 147.517339 
L 378.508274 140.980917 
L 387.992104 134.15098 
L 397.475934 127.027526 
L 406.959764 119.610555 
L 416.443594 111.900069 
L 425.927424 103.896067 
L 435.411254 95.598548 
L 444.895083 87.007513 
L 454.378913 78.122963 
L 463.862743 68.944895 
L 473.346573 59.473312 
L 482.830403 49.708213 
L 492.314233 39.649597 
L 502.746446 28.246109 
L 510.33351 19.729591 
L 510.33351 19.729591 
" clip-path="url(#p1098b0e63c)" style="fill: none; stroke: #06404c; stroke-width: 2; stroke-linecap: square"/>
   </g>
   <g id="line2d_34">
    <defs>
     <path id="maf04a38ac3" d="M 0 4 
C 1.060812 4 2.078319 3.578535 2.828427 2.828427 
C 3.578535 2.078319 4 1.060812 4 0 
C 4 -1.060812 3.578535 -2.078319 2.828427 -2.828427 
C 2.078319 -3.578535 1.060812 -4 0 -4 
C -1.060812 -4 -2.078319 -3.578535 -2.828427 -2.828427 
C -3.578535 -2.078319 -4 -1.060812 -4 0 
C -4 1.060812 -3.578535 2.078319 -2.828427 2.828427 
C -2.078319 3.578535 -1.060812 4 0 4 
z
" style="stroke: #ffffff; stroke-width: 2"/>
    </defs>
    <g clip-path="url(#p1098b0e63c)">
     <use xlink:href="#maf04a38ac3" x="162.567387" y="217.066832" style="fill: #06404c; stroke: #ffffff; stroke-width: 2"/>
    </g>
   </g>
   <g id="line2d_35">
    <path d="M 236.250825 217.06588 
L 244.786272 216.925728 
L 253.321719 216.547829 
L 261.857166 215.932181 
L 270.392613 215.078785 
L 278.92806 213.987642 
L 287.463507 212.65875 
L 295.998953 211.09211 
L 304.5344 209.287722 
L 313.069847 207.245585 
L 321.605294 204.965701 
L 330.140741 202.448069 
L 338.676188 199.692688 
L 347.211635 196.69956 
L 355.747082 193.468683 
L 364.282529 190.000058 
L 372.817976 186.293686 
L 381.353423 182.349565 
L 389.88887 178.167696 
L 398.424317 173.748079 
L 406.959764 169.090713 
L 415.495211 164.1956 
L 424.030658 159.062739 
L 432.566105 153.692129 
L 442.049934 147.445945 
L 451.533764 140.906245 
L 461.017594 134.073028 
L 470.501424 126.946296 
L 479.985254 119.526047 
L 489.469084 111.812282 
L 498.952914 103.805001 
L 508.436744 95.504203 
L 510.33351 93.808822 
L 510.33351 93.808822 
" clip-path="url(#p1098b0e63c)" style="fill: none; stroke: #7b9194; stroke-width: 2; stroke-linecap: square"/>
   </g>
   <g id="line2d_36">
    <defs>
     <path id="m05de4843ef" d="M 0 4 
C 1.060812 4 2.078319 3.578535 2.828427 2.828427 
C 3.578535 2.078319 4 1.060812 4 0 
C 4 -1.060812 3.578535 -2.078319 2.828427 -2.828427 
C 2.078319 -3.578535 1.060812 -4 0 -4 
C -1.060812 -4 -2.078319 -3.578535 -2.828427 -2.828427 
C -3.578535 -2.078319 -4 -1.060812 -4 0 
C -4 1.060812 -3.578535 2.078319 -2.828427 2.828427 
C -2.078319 3.578535 -1.060812 4 0 4 
z
" style="stroke: #ffffff; stroke-width: 2"/>
    </defs>
    <g clip-path="url(#p1098b0e63c)">
     <use xlink:href="#m05de4843ef" x="235.486939" y="217.066832" style="fill: #7b9194; stroke: #ffffff; stroke-width: 2"/>
    </g>
   </g>
   <g id="line2d_37">
    <g clip-path="url(#p1098b0e63c)">
     <use xlink:href="#m05de4843ef" x="463.009199" y="132.600762" style="fill: #7b9194; stroke: #ffffff; stroke-width: 2"/>
    </g>
   </g>
   <g id="patch_3">
    <path d="M 37.090396 217.066832 
L 37.090396 45.80072 
" style="fill: none; stroke: #7b9194; stroke-width: 0.8; stroke-linejoin: miter; stroke-linecap: square"/>
   </g>
   <g id="patch_4">
    <path d="M 37.090396 217.066832 
L 510.33351 217.066832 
" style="fill: none; stroke: #7b9194; stroke-width: 0.8; stroke-linejoin: miter; stroke-linecap: square"/>
   </g>
   <g id="text_18">
    <!-- 3 m up -->
    <g transform="translate(288.939328 173.546172) scale(0.1 -0.1)">
     <defs>
      <path id="BarlowSemiCondensed-Regular-137" d="M 2170 3174 
Q 2170 3238 2234 3238 
L 2560 3238 
Q 2624 3238 2624 3174 
L 2624 64 
Q 2624 0 2560 0 
L 2234 0 
Q 2170 0 2170 64 
L 2170 314 
Q 2170 333 2160 333 
Q 2150 333 2138 320 
Q 1914 -45 1395 -45 
Q 960 -45 685 211 
Q 410 467 410 954 
L 410 3174 
Q 410 3238 474 3238 
L 800 3238 
Q 864 3238 864 3174 
L 864 1069 
Q 864 730 1030 541 
Q 1197 352 1498 352 
Q 1811 352 1990 553 
Q 2170 755 2170 1094 
L 2170 3174 
z
" transform="scale(0.015625)"/>
      <path id="BarlowSemiCondensed-Regular-128" d="M 2714 2387 
Q 2797 2048 2797 1651 
Q 2797 1216 2733 890 
Q 2630 410 2371 182 
Q 2112 -45 1683 -45 
Q 1421 -45 1251 44 
Q 1082 134 979 307 
Q 973 326 960 323 
Q 947 320 947 301 
L 947 -1178 
Q 947 -1242 883 -1242 
L 557 -1242 
Q 493 -1242 493 -1178 
L 493 3174 
Q 493 3238 557 3238 
L 883 3238 
Q 947 3238 947 3174 
L 947 2931 
Q 947 2912 960 2909 
Q 973 2906 979 2925 
Q 1210 3290 1715 3290 
Q 2118 3290 2358 3075 
Q 2598 2861 2714 2387 
z
M 2214 774 
Q 2336 1101 2336 1619 
Q 2336 2131 2240 2419 
Q 2157 2656 2009 2777 
Q 1862 2899 1626 2899 
Q 1402 2899 1264 2777 
Q 1126 2656 1050 2426 
Q 954 2138 954 1619 
Q 954 1088 1062 794 
Q 1139 576 1267 461 
Q 1395 346 1613 346 
Q 2035 346 2214 774 
z
" transform="scale(0.015625)"/>
     </defs>
     <use xlink:href="#BarlowSemiCondensed-Regular-1e2"/>
     <use xlink:href="#BarlowSemiCondensed-Regular-3" transform="translate(46.203125 0)"/>
     <use xlink:href="#BarlowSemiCondensed-Regular-109" transform="translate(66.203125 0)"/>
     <use xlink:href="#BarlowSemiCondensed-Regular-3" transform="translate(139.90625 0)"/>
     <use xlink:href="#BarlowSemiCondensed-Regular-137" transform="translate(159.90625 0)"/>
     <use xlink:href="#BarlowSemiCondensed-Regular-128" transform="translate(207.90625 0)"/>
    </g>
   </g>
   <g id="text_19">
    <!-- 12 m up -->
    <g transform="translate(351.677824 173.546172) scale(0.1 -0.1)">
     <use xlink:href="#BarlowSemiCondensed-Regular-1e0"/>
     <use xlink:href="#BarlowSemiCondensed-Regular-1e1" transform="translate(30.390625 0)"/>
     <use xlink:href="#BarlowSemiCondensed-Regular-3" transform="translate(77.296875 0)"/>
     <use xlink:href="#BarlowSemiCondensed-Regular-109" transform="translate(97.296875 0)"/>
     <use xlink:href="#BarlowSemiCondensed-Regular-3" transform="translate(171 0)"/>
     <use xlink:href="#BarlowSemiCondensed-Regular-137" transform="translate(191 0)"/>
     <use xlink:href="#BarlowSemiCondensed-Regular-128" transform="translate(239 0)"/>
    </g>
   </g>
   <g id="text_20">
    <!-- 30 m up -->
    <g transform="translate(424.597376 173.546172) scale(0.1 -0.1)">
     <use xlink:href="#BarlowSemiCondensed-Regular-1e2"/>
     <use xlink:href="#BarlowSemiCondensed-Regular-1df" transform="translate(46.203125 0)"/>
     <use xlink:href="#BarlowSemiCondensed-Regular-3" transform="translate(96.609375 0)"/>
     <use xlink:href="#BarlowSemiCondensed-Regular-109" transform="translate(116.609375 0)"/>
     <use xlink:href="#BarlowSemiCondensed-Regular-3" transform="translate(190.3125 0)"/>
     <use xlink:href="#BarlowSemiCondensed-Regular-137" transform="translate(210.3125 0)"/>
     <use xlink:href="#BarlowSemiCondensed-Regular-128" transform="translate(258.3125 0)"/>
    </g>
   </g>
   <g id="patch_5">
    <path d="M 466.690119 180.429954 
Q 464.926382 157.512286 463.162645 134.594618 
" style="fill: none; stroke: #7b9194; stroke-linecap: round"/>
   </g>
   <g id="text_21">
    <!-- the 45 km ship above: -->
    <g transform="translate(430.055923 193.421874) scale(0.09 -0.09)">
     <defs>
      <path id="BarlowSemiCondensed-Regular-152" d="M 1184 0 
Q 1133 0 1114 51 
L 186 3168 
L 179 3187 
Q 179 3238 243 3238 
L 602 3238 
Q 659 3238 672 3181 
L 1350 685 
Q 1357 672 1366 672 
Q 1376 672 1382 685 
L 2054 3181 
Q 2067 3238 2125 3238 
L 2490 3232 
Q 2522 3232 2538 3213 
Q 2554 3194 2547 3162 
L 1626 51 
Q 1606 0 1555 0 
L 1184 0 
z
" transform="scale(0.015625)"/>
     </defs>
     <use xlink:href="#BarlowSemiCondensed-Regular-134"/>
     <use xlink:href="#BarlowSemiCondensed-Regular-ec" transform="translate(31.5 0)"/>
     <use xlink:href="#BarlowSemiCondensed-Regular-d0" transform="translate(79.296875 0)"/>
     <use xlink:href="#BarlowSemiCondensed-Regular-3" transform="translate(126.296875 0)"/>
     <use xlink:href="#BarlowSemiCondensed-Regular-1e3" transform="translate(146.296875 0)"/>
     <use xlink:href="#BarlowSemiCondensed-Regular-1e4" transform="translate(194.59375 0)"/>
     <use xlink:href="#BarlowSemiCondensed-Regular-3" transform="translate(240.6875 0)"/>
     <use xlink:href="#BarlowSemiCondensed-Regular-101" transform="translate(260.6875 0)"/>
     <use xlink:href="#BarlowSemiCondensed-Regular-109" transform="translate(305.984375 0)"/>
     <use xlink:href="#BarlowSemiCondensed-Regular-3" transform="translate(379.6875 0)"/>
     <use xlink:href="#BarlowSemiCondensed-Regular-12e" transform="translate(399.6875 0)"/>
     <use xlink:href="#BarlowSemiCondensed-Regular-ec" transform="translate(442.484375 0)"/>
     <use xlink:href="#BarlowSemiCondensed-Regular-f0" transform="translate(490.6875 0)"/>
     <use xlink:href="#BarlowSemiCondensed-Regular-128" transform="translate(513.890625 0)"/>
     <use xlink:href="#BarlowSemiCondensed-Regular-3" transform="translate(562.890625 0)"/>
     <use xlink:href="#BarlowSemiCondensed-Regular-ad" transform="translate(582.890625 0)"/>
     <use xlink:href="#BarlowSemiCondensed-Regular-c5" transform="translate(629.09375 0)"/>
     <use xlink:href="#BarlowSemiCondensed-Regular-10f" transform="translate(677.09375 0)"/>
     <use xlink:href="#BarlowSemiCondensed-Regular-152" transform="translate(723.390625 0)"/>
     <use xlink:href="#BarlowSemiCondensed-Regular-d0" transform="translate(764.890625 0)"/>
     <use xlink:href="#BarlowSemiCondensed-Regular-21a" transform="translate(811.890625 0)"/>
    </g>
    <!-- 39 m hidden -->
    <g transform="translate(463.35311 204.221874) scale(0.09 -0.09)">
     <defs>
      <path id="BarlowSemiCondensed-Regular-1e8" d="M 2477 3738 
Q 2573 3482 2573 3117 
L 2573 1069 
Q 2573 557 2259 253 
Q 1946 -51 1440 -51 
Q 960 -51 656 249 
Q 352 550 352 1043 
L 352 1139 
Q 352 1203 416 1203 
L 742 1203 
Q 806 1203 806 1139 
L 806 1069 
Q 806 749 985 550 
Q 1165 352 1440 352 
Q 1734 352 1926 553 
Q 2118 755 2118 1094 
L 2118 2029 
Q 2118 2042 2105 2048 
Q 2093 2054 2086 2042 
Q 1965 1862 1779 1776 
Q 1594 1690 1363 1690 
Q 973 1690 723 1888 
Q 474 2086 358 2458 
Q 269 2707 269 3110 
Q 269 3456 333 3667 
Q 435 4083 710 4307 
Q 986 4531 1414 4531 
Q 1824 4531 2096 4323 
Q 2368 4115 2477 3738 
z
M 1427 2067 
Q 1670 2067 1836 2208 
Q 2003 2349 2061 2592 
Q 2118 2771 2118 3104 
Q 2118 3386 2074 3571 
Q 2016 3834 1849 3981 
Q 1683 4128 1427 4128 
Q 1171 4128 1001 3981 
Q 832 3834 768 3552 
Q 730 3373 730 3098 
Q 730 2771 787 2579 
Q 851 2336 1014 2201 
Q 1178 2067 1427 2067 
z
" transform="scale(0.015625)"/>
     </defs>
     <use xlink:href="#BarlowSemiCondensed-Regular-1e2"/>
     <use xlink:href="#BarlowSemiCondensed-Regular-1e8" transform="translate(46.203125 0)"/>
     <use xlink:href="#BarlowSemiCondensed-Regular-3" transform="translate(92.296875 0)"/>
     <use xlink:href="#BarlowSemiCondensed-Regular-109" transform="translate(112.296875 0)"/>
     <use xlink:href="#BarlowSemiCondensed-Regular-3" transform="translate(186 0)"/>
     <use xlink:href="#BarlowSemiCondensed-Regular-ec" transform="translate(206 0)"/>
     <use xlink:href="#BarlowSemiCondensed-Regular-f0" transform="translate(254.203125 0)"/>
     <use xlink:href="#BarlowSemiCondensed-Regular-cc" transform="translate(277.40625 0)"/>
     <use xlink:href="#BarlowSemiCondensed-Regular-cc" transform="translate(325.8125 0)"/>
     <use xlink:href="#BarlowSemiCondensed-Regular-d0" transform="translate(374.21875 0)"/>
     <use xlink:href="#BarlowSemiCondensed-Regular-10a" transform="translate(421.21875 0)"/>
    </g>
   </g>
   <g id="text_22">
    <!-- How much of a target the earth's curve hides, refraction k = 0.13. -->
    <g style="fill: #7b9194" transform="translate(37.090396 35.80072) scale(0.1 -0.1)">
     <defs>
      <path id="BarlowSemiCondensed-Regular-3e" d="M 2624 4416 
Q 2624 4480 2688 4480 
L 3014 4480 
Q 3078 4480 3078 4416 
L 3078 64 
Q 3078 0 3014 0 
L 2688 0 
Q 2624 0 2624 64 
L 2624 2022 
Q 2624 2048 2598 2048 
L 1011 2048 
Q 986 2048 986 2022 
L 986 64 
Q 986 0 922 0 
L 595 0 
Q 531 0 531 64 
L 531 4416 
Q 531 4480 595 4480 
L 922 4480 
Q 986 4480 986 4416 
L 986 2470 
Q 986 2445 1011 2445 
L 2598 2445 
Q 2624 2445 2624 2470 
L 2624 4416 
z
" transform="scale(0.015625)"/>
      <path id="BarlowSemiCondensed-Regular-153" d="M 1043 0 
Q 986 0 973 58 
L 186 3168 
L 179 3194 
Q 179 3238 237 3238 
L 557 3238 
Q 614 3238 627 3181 
L 1203 723 
Q 1210 704 1216 704 
Q 1222 704 1229 723 
L 1811 3181 
Q 1824 3238 1882 3238 
L 2176 3238 
Q 2240 3238 2246 3181 
L 2842 730 
Q 2848 710 2854 710 
Q 2861 710 2867 730 
L 3450 3181 
Q 3462 3238 3520 3238 
L 3846 3232 
Q 3878 3232 3894 3213 
Q 3910 3194 3898 3162 
L 3098 58 
Q 3091 0 3027 0 
L 2694 0 
Q 2637 0 2624 58 
L 2042 2426 
Q 2035 2445 2025 2445 
Q 2016 2445 2010 2426 
L 1446 58 
Q 1434 0 1376 0 
L 1043 0 
z
" transform="scale(0.015625)"/>
      <path id="BarlowSemiCondensed-Regular-c6" d="M 1530 -51 
Q 1069 -51 768 201 
Q 467 454 403 883 
Q 365 1210 365 1626 
Q 365 1952 403 2362 
Q 461 2778 768 3034 
Q 1075 3290 1530 3290 
Q 1984 3290 2294 3046 
Q 2605 2803 2656 2438 
L 2675 2304 
L 2675 2291 
Q 2675 2266 2659 2250 
Q 2643 2234 2618 2234 
L 2291 2214 
Q 2234 2214 2221 2272 
Q 2221 2330 2214 2349 
Q 2182 2573 1993 2733 
Q 1805 2893 1530 2893 
Q 1248 2893 1065 2720 
Q 883 2547 851 2272 
Q 819 1997 819 1619 
Q 819 1235 851 960 
Q 883 678 1065 512 
Q 1248 346 1530 346 
Q 1811 346 2000 506 
Q 2189 666 2214 896 
L 2221 947 
Q 2234 1018 2291 1005 
L 2611 979 
Q 2669 966 2669 922 
L 2669 896 
Q 2669 870 2656 819 
Q 2611 442 2300 195 
Q 1990 -51 1530 -51 
z
" transform="scale(0.015625)"/>
      <path id="BarlowSemiCondensed-Regular-e5" d="M 1606 4109 
Q 1312 4109 1197 3949 
Q 1082 3789 1082 3424 
L 1082 3264 
Q 1082 3238 1107 3238 
L 1709 3238 
Q 1773 3238 1773 3174 
L 1773 2925 
Q 1773 2861 1709 2861 
L 1107 2861 
Q 1082 2861 1082 2835 
L 1082 64 
Q 1082 0 1018 0 
L 691 0 
Q 627 0 627 64 
L 627 2835 
Q 627 2861 602 2861 
L 262 2861 
Q 198 2861 198 2925 
L 198 3174 
Q 198 3238 262 3238 
L 602 3238 
Q 627 3238 627 3264 
L 627 3443 
Q 627 4013 841 4256 
Q 1056 4499 1587 4499 
L 1722 4499 
Q 1786 4499 1786 4435 
L 1786 4173 
Q 1786 4109 1722 4109 
L 1606 4109 
z
" transform="scale(0.015625)"/>
      <path id="BarlowSemiCondensed-Regular-23e" d="M 282 3155 
Q 218 3155 218 3219 
L 166 4403 
Q 166 4467 230 4467 
L 570 4467 
Q 634 4467 634 4403 
L 582 3219 
Q 582 3155 518 3155 
L 282 3155 
z
" transform="scale(0.015625)"/>
      <path id="BarlowSemiCondensed-Regular-252" d="M 294 2547 
Q 230 2547 230 2611 
L 230 2855 
Q 230 2919 294 2919 
L 2720 2919 
Q 2784 2919 2784 2855 
L 2784 2611 
Q 2784 2547 2720 2547 
L 294 2547 
z
M 294 1222 
Q 230 1222 230 1286 
L 230 1530 
Q 230 1594 294 1594 
L 2720 1594 
Q 2784 1594 2784 1530 
L 2784 1286 
Q 2784 1222 2720 1222 
L 294 1222 
z
" transform="scale(0.015625)"/>
      <path id="BarlowSemiCondensed-Regular-218" d="M 742 13 
Q 582 13 483 115 
Q 384 218 384 372 
Q 384 532 483 631 
Q 582 730 742 730 
Q 896 730 998 631 
Q 1100 532 1100 372 
Q 1100 218 998 115 
Q 896 13 742 13 
z
" transform="scale(0.015625)"/>
     </defs>
     <use xlink:href="#BarlowSemiCondensed-Regular-3e"/>
     <use xlink:href="#BarlowSemiCondensed-Regular-10f" transform="translate(56.296875 0)"/>
     <use xlink:href="#BarlowSemiCondensed-Regular-153" transform="translate(102.59375 0)"/>
     <use xlink:href="#BarlowSemiCondensed-Regular-3" transform="translate(166.390625 0)"/>
     <use xlink:href="#BarlowSemiCondensed-Regular-109" transform="translate(186.390625 0)"/>
     <use xlink:href="#BarlowSemiCondensed-Regular-137" transform="translate(260.09375 0)"/>
     <use xlink:href="#BarlowSemiCondensed-Regular-c6" transform="translate(308.09375 0)"/>
     <use xlink:href="#BarlowSemiCondensed-Regular-ec" transform="translate(354.1875 0)"/>
     <use xlink:href="#BarlowSemiCondensed-Regular-3" transform="translate(402.390625 0)"/>
     <use xlink:href="#BarlowSemiCondensed-Regular-10f" transform="translate(422.390625 0)"/>
     <use xlink:href="#BarlowSemiCondensed-Regular-e5" transform="translate(470.09375 0)"/>
     <use xlink:href="#BarlowSemiCondensed-Regular-3" transform="translate(501.796875 0)"/>
     <use xlink:href="#BarlowSemiCondensed-Regular-ad" transform="translate(521.796875 0)"/>
     <use xlink:href="#BarlowSemiCondensed-Regular-3" transform="translate(568 0)"/>
     <use xlink:href="#BarlowSemiCondensed-Regular-134" transform="translate(588 0)"/>
     <use xlink:href="#BarlowSemiCondensed-Regular-ad" transform="translate(619.5 0)"/>
     <use xlink:href="#BarlowSemiCondensed-Regular-12b" transform="translate(665.703125 0)"/>
     <use xlink:href="#BarlowSemiCondensed-Regular-e6" transform="translate(697.8125 0)"/>
     <use xlink:href="#BarlowSemiCondensed-Regular-d0" transform="translate(745.21875 0)"/>
     <use xlink:href="#BarlowSemiCondensed-Regular-134" transform="translate(791.71875 0)"/>
     <use xlink:href="#BarlowSemiCondensed-Regular-3" transform="translate(823.21875 0)"/>
     <use xlink:href="#BarlowSemiCondensed-Regular-134" transform="translate(843.21875 0)"/>
     <use xlink:href="#BarlowSemiCondensed-Regular-ec" transform="translate(874.71875 0)"/>
     <use xlink:href="#BarlowSemiCondensed-Regular-d0" transform="translate(922.515625 0)"/>
     <use xlink:href="#BarlowSemiCondensed-Regular-3" transform="translate(969.515625 0)"/>
     <use xlink:href="#BarlowSemiCondensed-Regular-d0" transform="translate(989.515625 0)"/>
     <use xlink:href="#BarlowSemiCondensed-Regular-ad" transform="translate(1036.109375 0)"/>
     <use xlink:href="#BarlowSemiCondensed-Regular-12b" transform="translate(1082.3125 0)"/>
     <use xlink:href="#BarlowSemiCondensed-Regular-134" transform="translate(1115.921875 0)"/>
     <use xlink:href="#BarlowSemiCondensed-Regular-ec" transform="translate(1147.421875 0)"/>
     <use xlink:href="#BarlowSemiCondensed-Regular-23e" transform="translate(1193.71875 0)"/>
     <use xlink:href="#BarlowSemiCondensed-Regular-12e" transform="translate(1203.8125 0)"/>
     <use xlink:href="#BarlowSemiCondensed-Regular-3" transform="translate(1246.609375 0)"/>
     <use xlink:href="#BarlowSemiCondensed-Regular-c6" transform="translate(1266.609375 0)"/>
     <use xlink:href="#BarlowSemiCondensed-Regular-137" transform="translate(1312.703125 0)"/>
     <use xlink:href="#BarlowSemiCondensed-Regular-12b" transform="translate(1360.703125 0)"/>
     <use xlink:href="#BarlowSemiCondensed-Regular-152" transform="translate(1395.703125 0)"/>
     <use xlink:href="#BarlowSemiCondensed-Regular-d0" transform="translate(1437.203125 0)"/>
     <use xlink:href="#BarlowSemiCondensed-Regular-3" transform="translate(1484.203125 0)"/>
     <use xlink:href="#BarlowSemiCondensed-Regular-ec" transform="translate(1504.203125 0)"/>
     <use xlink:href="#BarlowSemiCondensed-Regular-f0" transform="translate(1552.40625 0)"/>
     <use xlink:href="#BarlowSemiCondensed-Regular-cc" transform="translate(1575.609375 0)"/>
     <use xlink:href="#BarlowSemiCondensed-Regular-d0" transform="translate(1624.015625 0)"/>
     <use xlink:href="#BarlowSemiCondensed-Regular-12e" transform="translate(1670.421875 0)"/>
     <use xlink:href="#BarlowSemiCondensed-Regular-219" transform="translate(1713.21875 0)"/>
     <use xlink:href="#BarlowSemiCondensed-Regular-3" transform="translate(1735.3125 0)"/>
     <use xlink:href="#BarlowSemiCondensed-Regular-12b" transform="translate(1755.3125 0)"/>
     <use xlink:href="#BarlowSemiCondensed-Regular-d0" transform="translate(1787.71875 0)"/>
     <use xlink:href="#BarlowSemiCondensed-Regular-e5" transform="translate(1834.21875 0)"/>
     <use xlink:href="#BarlowSemiCondensed-Regular-12b" transform="translate(1865.921875 0)"/>
     <use xlink:href="#BarlowSemiCondensed-Regular-ad" transform="translate(1898.625 0)"/>
     <use xlink:href="#BarlowSemiCondensed-Regular-c6" transform="translate(1944.828125 0)"/>
     <use xlink:href="#BarlowSemiCondensed-Regular-134" transform="translate(1990.828125 0)"/>
     <use xlink:href="#BarlowSemiCondensed-Regular-f0" transform="translate(2022.328125 0)"/>
     <use xlink:href="#BarlowSemiCondensed-Regular-10f" transform="translate(2045.53125 0)"/>
     <use xlink:href="#BarlowSemiCondensed-Regular-10a" transform="translate(2093.53125 0)"/>
     <use xlink:href="#BarlowSemiCondensed-Regular-3" transform="translate(2141.734375 0)"/>
     <use xlink:href="#BarlowSemiCondensed-Regular-101" transform="translate(2161.734375 0)"/>
     <use xlink:href="#BarlowSemiCondensed-Regular-3" transform="translate(2207.03125 0)"/>
     <use xlink:href="#BarlowSemiCondensed-Regular-252" transform="translate(2227.03125 0)"/>
     <use xlink:href="#BarlowSemiCondensed-Regular-3" transform="translate(2274.125 0)"/>
     <use xlink:href="#BarlowSemiCondensed-Regular-1df" transform="translate(2294.125 0)"/>
     <use xlink:href="#BarlowSemiCondensed-Regular-218" transform="translate(2344.53125 0)"/>
     <use xlink:href="#BarlowSemiCondensed-Regular-1e0" transform="translate(2367.9375 0)"/>
     <use xlink:href="#BarlowSemiCondensed-Regular-1e2" transform="translate(2398.234375 0)"/>
     <use xlink:href="#BarlowSemiCondensed-Regular-218" transform="translate(2444.4375 0)"/>
    </g>
   </g>
   <g id="legend_1">
    <g id="line2d_38">
     <path d="M 44.740396 264.495054 
L 53.240396 264.495054 
L 61.740396 264.495054 
" style="fill: none; stroke: #cb0d00; stroke-width: 2; stroke-linecap: square"/>
    </g>
    <g id="text_23">
     <!-- camera 3 m up -->
     <g transform="translate(68.540396 267.470054) scale(0.085 -0.085)">
      <use xlink:href="#BarlowSemiCondensed-Regular-c6"/>
      <use xlink:href="#BarlowSemiCondensed-Regular-ad" transform="translate(46.09375 0)"/>
      <use xlink:href="#BarlowSemiCondensed-Regular-109" transform="translate(92.296875 0)"/>
      <use xlink:href="#BarlowSemiCondensed-Regular-d0" transform="translate(165.59375 0)"/>
      <use xlink:href="#BarlowSemiCondensed-Regular-12b" transform="translate(212.59375 0)"/>
      <use xlink:href="#BarlowSemiCondensed-Regular-ad" transform="translate(245.296875 0)"/>
      <use xlink:href="#BarlowSemiCondensed-Regular-3" transform="translate(291.5 0)"/>
      <use xlink:href="#BarlowSemiCondensed-Regular-1e2" transform="translate(311.5 0)"/>
      <use xlink:href="#BarlowSemiCondensed-Regular-3" transform="translate(357.703125 0)"/>
      <use xlink:href="#BarlowSemiCondensed-Regular-109" transform="translate(377.703125 0)"/>
      <use xlink:href="#BarlowSemiCondensed-Regular-3" transform="translate(451.40625 0)"/>
      <use xlink:href="#BarlowSemiCondensed-Regular-137" transform="translate(471.40625 0)"/>
      <use xlink:href="#BarlowSemiCondensed-Regular-128" transform="translate(519.40625 0)"/>
     </g>
    </g>
    <g id="line2d_39">
     <path d="M 133.854928 264.495054 
L 142.354928 264.495054 
L 150.854928 264.495054 
" style="fill: none; stroke: #06404c; stroke-width: 2; stroke-linecap: square"/>
    </g>
    <g id="text_24">
     <!-- camera 12 m up -->
     <g transform="translate(157.654928 267.470054) scale(0.085 -0.085)">
      <use xlink:href="#BarlowSemiCondensed-Regular-c6"/>
      <use xlink:href="#BarlowSemiCondensed-Regular-ad" transform="translate(46.09375 0)"/>
      <use xlink:href="#BarlowSemiCondensed-Regular-109" transform="translate(92.296875 0)"/>
      <use xlink:href="#BarlowSemiCondensed-Regular-d0" transform="translate(165.59375 0)"/>
      <use xlink:href="#BarlowSemiCondensed-Regular-12b" transform="translate(212.59375 0)"/>
      <use xlink:href="#BarlowSemiCondensed-Regular-ad" transform="translate(245.296875 0)"/>
      <use xlink:href="#BarlowSemiCondensed-Regular-3" transform="translate(291.5 0)"/>
      <use xlink:href="#BarlowSemiCondensed-Regular-1e0" transform="translate(311.5 0)"/>
      <use xlink:href="#BarlowSemiCondensed-Regular-1e1" transform="translate(341.890625 0)"/>
      <use xlink:href="#BarlowSemiCondensed-Regular-3" transform="translate(388.796875 0)"/>
      <use xlink:href="#BarlowSemiCondensed-Regular-109" transform="translate(408.796875 0)"/>
      <use xlink:href="#BarlowSemiCondensed-Regular-3" transform="translate(482.5 0)"/>
      <use xlink:href="#BarlowSemiCondensed-Regular-137" transform="translate(502.5 0)"/>
      <use xlink:href="#BarlowSemiCondensed-Regular-128" transform="translate(550.5 0)"/>
     </g>
    </g>
    <g id="line2d_40">
     <path d="M 225.612428 264.495054 
L 234.112428 264.495054 
L 242.612428 264.495054 
" style="fill: none; stroke: #7b9194; stroke-width: 2; stroke-linecap: square"/>
    </g>
    <g id="text_25">
     <!-- camera 30 m up -->
     <g transform="translate(249.412428 267.470054) scale(0.085 -0.085)">
      <use xlink:href="#BarlowSemiCondensed-Regular-c6"/>
      <use xlink:href="#BarlowSemiCondensed-Regular-ad" transform="translate(46.09375 0)"/>
      <use xlink:href="#BarlowSemiCondensed-Regular-109" transform="translate(92.296875 0)"/>
      <use xlink:href="#BarlowSemiCondensed-Regular-d0" transform="translate(165.59375 0)"/>
      <use xlink:href="#BarlowSemiCondensed-Regular-12b" transform="translate(212.59375 0)"/>
      <use xlink:href="#BarlowSemiCondensed-Regular-ad" transform="translate(245.296875 0)"/>
      <use xlink:href="#BarlowSemiCondensed-Regular-3" transform="translate(291.5 0)"/>
      <use xlink:href="#BarlowSemiCondensed-Regular-1e2" transform="translate(311.5 0)"/>
      <use xlink:href="#BarlowSemiCondensed-Regular-1df" transform="translate(357.703125 0)"/>
      <use xlink:href="#BarlowSemiCondensed-Regular-3" transform="translate(408.109375 0)"/>
      <use xlink:href="#BarlowSemiCondensed-Regular-109" transform="translate(428.109375 0)"/>
      <use xlink:href="#BarlowSemiCondensed-Regular-3" transform="translate(501.8125 0)"/>
      <use xlink:href="#BarlowSemiCondensed-Regular-137" transform="translate(521.8125 0)"/>
      <use xlink:href="#BarlowSemiCondensed-Regular-128" transform="translate(569.8125 0)"/>
     </g>
    </g>
   </g>
  </g>
  <g id="text_26">
   <!-- Raise the camera and the horizon moves out -->
   <g transform="translate(5.184 17.00024) scale(0.14 -0.14)">
    <defs>
     <path id="BarlowSemiCondensed-Bold-74" d="M 2445 0 
Q 2374 0 2355 64 
L 1709 1830 
Q 1696 1856 1677 1856 
L 1274 1856 
Q 1242 1856 1242 1824 
L 1242 77 
Q 1242 45 1219 22 
Q 1197 0 1165 0 
L 416 0 
Q 384 0 361 22 
Q 339 45 339 77 
L 339 4403 
Q 339 4435 361 4457 
Q 384 4480 416 4480 
L 1978 4480 
Q 2355 4480 2649 4310 
Q 2944 4141 3104 3833 
Q 3264 3526 3264 3130 
Q 3264 2720 3085 2419 
Q 2906 2118 2579 1971 
Q 2547 1958 2560 1926 
L 3290 90 
Q 3296 77 3296 58 
Q 3296 0 3226 0 
L 2445 0 
z
M 1274 3706 
Q 1242 3706 1242 3674 
L 1242 2579 
Q 1242 2547 1274 2547 
L 1830 2547 
Q 2067 2547 2214 2704 
Q 2362 2861 2362 3123 
Q 2362 3392 2214 3549 
Q 2067 3706 1830 3706 
L 1274 3706 
z
" transform="scale(0.015625)"/>
     <path id="BarlowSemiCondensed-Bold-ad" d="M 1542 3341 
Q 1926 3341 2227 3203 
Q 2528 3066 2697 2819 
Q 2867 2573 2867 2259 
L 2867 77 
Q 2867 45 2844 22 
Q 2822 0 2790 0 
L 2042 0 
Q 2010 0 1987 22 
Q 1965 45 1965 77 
L 1965 256 
Q 1965 275 1952 281 
Q 1939 288 1926 269 
Q 1683 -51 1171 -51 
Q 736 -51 445 173 
Q 154 397 154 922 
Q 154 1965 1459 1965 
L 1933 1965 
Q 1965 1965 1965 1997 
L 1965 2144 
Q 1965 2336 1853 2451 
Q 1741 2566 1549 2566 
Q 1395 2566 1292 2496 
Q 1190 2426 1165 2304 
Q 1146 2240 1075 2240 
L 301 2285 
Q 269 2285 246 2304 
Q 224 2323 230 2355 
Q 269 2797 630 3069 
Q 992 3341 1542 3341 
z
M 1440 634 
Q 1658 634 1811 755 
Q 1965 877 1965 1075 
L 1965 1344 
Q 1965 1376 1933 1376 
L 1574 1376 
Q 1338 1376 1203 1273 
Q 1069 1171 1069 979 
Q 1069 813 1171 723 
Q 1274 634 1440 634 
z
" transform="scale(0.015625)"/>
     <path id="BarlowSemiCondensed-Bold-f0" d="M 755 3661 
Q 538 3661 397 3805 
Q 256 3949 256 4166 
Q 256 4390 393 4531 
Q 531 4672 755 4672 
Q 979 4672 1120 4531 
Q 1261 4390 1261 4166 
Q 1261 3949 1117 3805 
Q 973 3661 755 3661 
z
M 384 0 
Q 352 0 329 22 
Q 307 45 307 77 
L 307 3213 
Q 307 3245 329 3267 
Q 352 3290 384 3290 
L 1133 3290 
Q 1165 3290 1187 3267 
Q 1210 3245 1210 3213 
L 1210 77 
Q 1210 45 1187 22 
Q 1165 0 1133 0 
L 384 0 
z
" transform="scale(0.015625)"/>
     <path id="BarlowSemiCondensed-Bold-12e" d="M 1491 -45 
Q 896 -45 544 217 
Q 192 480 192 909 
L 192 960 
Q 192 992 214 1014 
Q 237 1037 269 1037 
L 973 1037 
Q 1005 1037 1027 1014 
Q 1050 992 1050 960 
L 1050 947 
Q 1050 806 1178 716 
Q 1306 627 1491 627 
Q 1664 627 1766 707 
Q 1869 787 1869 909 
Q 1869 1030 1757 1094 
Q 1645 1158 1395 1242 
Q 1293 1267 1088 1344 
Q 704 1472 464 1689 
Q 224 1907 224 2317 
Q 224 2784 563 3059 
Q 902 3334 1459 3334 
Q 2035 3334 2377 3049 
Q 2720 2765 2720 2291 
Q 2720 2221 2643 2221 
L 1952 2221 
Q 1920 2221 1897 2243 
Q 1875 2266 1875 2298 
L 1875 2317 
Q 1875 2451 1766 2540 
Q 1658 2630 1472 2630 
Q 1299 2630 1193 2547 
Q 1088 2464 1088 2342 
Q 1088 2208 1216 2134 
Q 1344 2061 1606 1984 
Q 1664 1965 1718 1949 
Q 1773 1933 1818 1914 
Q 2253 1766 2515 1558 
Q 2778 1350 2778 941 
Q 2778 480 2429 217 
Q 2080 -45 1491 -45 
z
" transform="scale(0.015625)"/>
     <path id="BarlowSemiCondensed-Bold-d0" d="M 2931 2144 
Q 2950 1933 2950 1677 
L 2944 1427 
Q 2944 1350 2867 1350 
L 1171 1350 
Q 1139 1350 1139 1318 
Q 1152 1171 1165 1101 
Q 1197 922 1321 819 
Q 1446 717 1632 717 
Q 1946 723 2067 1005 
Q 2099 1069 2163 1056 
L 2842 922 
Q 2918 902 2893 826 
Q 2752 403 2429 176 
Q 2106 -51 1632 -51 
Q 1062 -51 726 208 
Q 390 467 288 954 
Q 230 1216 230 1754 
Q 230 2061 269 2272 
Q 339 2758 691 3049 
Q 1043 3341 1581 3341 
Q 2163 3341 2528 3011 
Q 2893 2682 2931 2144 
z
M 1587 2566 
Q 1414 2566 1302 2464 
Q 1190 2362 1158 2182 
Q 1139 2067 1139 1939 
Q 1139 1907 1171 1907 
L 2003 1907 
Q 2035 1907 2035 1939 
Q 2035 2067 2016 2182 
Q 1990 2355 1875 2460 
Q 1760 2566 1587 2566 
z
" transform="scale(0.015625)"/>
     <path id="BarlowSemiCondensed-Bold-3" transform="scale(0.015625)"/>
     <path id="BarlowSemiCondensed-Bold-134" d="M 1984 2688 
Q 1984 2656 1961 2633 
Q 1939 2611 1907 2611 
L 1414 2611 
Q 1382 2611 1382 2579 
L 1382 1139 
Q 1382 941 1462 854 
Q 1542 768 1709 774 
L 1837 774 
Q 1869 774 1891 752 
Q 1914 730 1914 698 
L 1914 77 
Q 1914 0 1837 0 
Q 1728 -6 1517 -6 
Q 1011 -6 764 160 
Q 518 326 518 787 
L 518 2579 
Q 518 2611 486 2611 
L 192 2611 
Q 160 2611 137 2633 
Q 115 2656 115 2688 
L 115 3213 
Q 115 3245 137 3267 
Q 160 3290 192 3290 
L 486 3290 
Q 518 3290 518 3322 
L 518 4058 
Q 518 4090 540 4112 
Q 563 4134 595 4134 
L 1306 4134 
Q 1338 4134 1360 4112 
Q 1382 4090 1382 4058 
L 1382 3322 
Q 1382 3290 1414 3290 
L 1907 3290 
Q 1939 3290 1961 3267 
Q 1984 3245 1984 3213 
L 1984 2688 
z
" transform="scale(0.015625)"/>
     <path id="BarlowSemiCondensed-Bold-ec" d="M 1914 3341 
Q 2381 3341 2646 3043 
Q 2912 2746 2912 2214 
L 2912 77 
Q 2912 45 2889 22 
Q 2867 0 2835 0 
L 2086 0 
Q 2054 0 2032 22 
Q 2010 45 2010 77 
L 2010 2086 
Q 2010 2310 1901 2438 
Q 1792 2566 1606 2566 
Q 1414 2566 1302 2435 
Q 1190 2304 1190 2080 
L 1190 77 
Q 1190 45 1168 22 
Q 1146 0 1114 0 
L 365 0 
Q 333 0 310 22 
Q 288 45 288 77 
L 288 4403 
Q 288 4435 310 4457 
Q 333 4480 365 4480 
L 1114 4480 
Q 1146 4480 1168 4457 
Q 1190 4435 1190 4403 
L 1190 3034 
Q 1190 3014 1203 3011 
Q 1216 3008 1235 3034 
Q 1466 3341 1914 3341 
z
" transform="scale(0.015625)"/>
     <path id="BarlowSemiCondensed-Bold-c6" d="M 1594 -51 
Q 1056 -51 707 221 
Q 358 493 275 966 
Q 224 1229 224 1658 
Q 224 1978 275 2336 
Q 358 2797 710 3069 
Q 1062 3341 1594 3341 
Q 2112 3341 2467 3078 
Q 2822 2816 2906 2387 
Q 2918 2330 2931 2202 
Q 2931 2131 2854 2118 
L 2118 2048 
L 2106 2048 
Q 2048 2048 2035 2118 
Q 2035 2163 2029 2182 
Q 2016 2234 2003 2272 
Q 1965 2400 1856 2483 
Q 1747 2566 1587 2566 
Q 1414 2566 1305 2464 
Q 1197 2362 1165 2182 
Q 1126 1971 1126 1651 
Q 1126 1299 1171 1101 
Q 1203 928 1308 825 
Q 1414 723 1587 723 
Q 1773 723 1885 825 
Q 1997 928 2016 1082 
L 2029 1158 
Q 2035 1190 2057 1212 
Q 2080 1235 2112 1229 
L 2854 1165 
Q 2925 1152 2925 1082 
Q 2925 1043 2912 954 
Q 2848 486 2493 217 
Q 2138 -51 1594 -51 
z
" transform="scale(0.015625)"/>
     <path id="BarlowSemiCondensed-Bold-109" d="M 3610 3341 
Q 4077 3341 4323 3043 
Q 4570 2746 4570 2208 
L 4570 77 
Q 4570 45 4547 22 
Q 4525 0 4493 0 
L 3750 0 
Q 3718 0 3696 22 
Q 3674 45 3674 77 
L 3674 2080 
Q 3674 2304 3568 2435 
Q 3462 2566 3283 2566 
Q 3098 2566 2989 2435 
Q 2880 2304 2880 2086 
L 2880 77 
Q 2880 45 2857 22 
Q 2835 0 2803 0 
L 2061 0 
Q 2029 0 2006 22 
Q 1984 45 1984 77 
L 1984 2080 
Q 1984 2304 1875 2435 
Q 1766 2566 1587 2566 
Q 1402 2566 1293 2435 
Q 1184 2304 1184 2086 
L 1184 77 
Q 1184 45 1161 22 
Q 1139 0 1107 0 
L 365 0 
Q 333 0 310 22 
Q 288 45 288 77 
L 288 3213 
Q 288 3245 310 3267 
Q 333 3290 365 3290 
L 1107 3290 
Q 1139 3290 1161 3267 
Q 1184 3245 1184 3213 
L 1184 3046 
Q 1184 3027 1197 3020 
Q 1210 3014 1222 3034 
Q 1357 3194 1536 3267 
Q 1715 3341 1920 3341 
Q 2208 3341 2416 3222 
Q 2624 3104 2739 2880 
Q 2746 2867 2758 2870 
Q 2771 2874 2784 2893 
Q 2925 3130 3142 3235 
Q 3360 3341 3610 3341 
z
" transform="scale(0.015625)"/>
     <path id="BarlowSemiCondensed-Bold-12b" d="M 1850 3334 
Q 2022 3334 2163 3258 
Q 2214 3226 2202 3155 
L 2074 2419 
Q 2067 2342 1984 2374 
Q 1882 2400 1798 2400 
Q 1722 2400 1632 2381 
Q 1446 2355 1318 2201 
Q 1190 2048 1190 1830 
L 1190 77 
Q 1190 45 1168 22 
Q 1146 0 1114 0 
L 365 0 
Q 333 0 310 22 
Q 288 45 288 77 
L 288 3213 
Q 288 3245 310 3267 
Q 333 3290 365 3290 
L 1114 3290 
Q 1146 3290 1168 3267 
Q 1190 3245 1190 3213 
L 1190 2957 
Q 1190 2931 1200 2928 
Q 1210 2925 1222 2944 
Q 1446 3334 1850 3334 
z
" transform="scale(0.015625)"/>
     <path id="BarlowSemiCondensed-Bold-10a" d="M 1914 3341 
Q 2381 3341 2646 3043 
Q 2912 2746 2912 2214 
L 2912 77 
Q 2912 45 2889 22 
Q 2867 0 2835 0 
L 2086 0 
Q 2054 0 2032 22 
Q 2010 45 2010 77 
L 2010 2086 
Q 2010 2310 1901 2438 
Q 1792 2566 1606 2566 
Q 1414 2566 1302 2435 
Q 1190 2304 1190 2080 
L 1190 77 
Q 1190 45 1168 22 
Q 1146 0 1114 0 
L 365 0 
Q 333 0 310 22 
Q 288 45 288 77 
L 288 3213 
Q 288 3245 310 3267 
Q 333 3290 365 3290 
L 1114 3290 
Q 1146 3290 1168 3267 
Q 1190 3245 1190 3213 
L 1190 3034 
Q 1190 3014 1203 3011 
Q 1216 3008 1235 3034 
Q 1466 3341 1914 3341 
z
" transform="scale(0.015625)"/>
     <path id="BarlowSemiCondensed-Bold-cc" d="M 2042 4403 
Q 2042 4435 2064 4457 
Q 2086 4480 2118 4480 
L 2867 4480 
Q 2899 4480 2921 4457 
Q 2944 4435 2944 4403 
L 2944 77 
Q 2944 45 2921 22 
Q 2899 0 2867 0 
L 2118 0 
Q 2086 0 2064 22 
Q 2042 45 2042 77 
L 2042 218 
Q 2042 237 2029 243 
Q 2016 250 2003 230 
Q 1766 -51 1325 -51 
Q 544 -51 320 966 
Q 256 1286 256 1677 
Q 256 2022 314 2349 
Q 512 3341 1338 3341 
Q 1562 3341 1722 3280 
Q 1882 3219 2003 3072 
Q 2016 3053 2029 3059 
Q 2042 3066 2042 3085 
L 2042 4403 
z
M 1990 1094 
Q 2035 1280 2035 1651 
Q 2035 1990 1984 2214 
Q 1901 2566 1606 2566 
Q 1459 2566 1363 2476 
Q 1267 2387 1222 2221 
Q 1165 2035 1165 1651 
Q 1165 1286 1210 1101 
Q 1293 723 1606 723 
Q 1894 723 1990 1094 
z
" transform="scale(0.015625)"/>
     <path id="BarlowSemiCondensed-Bold-10f" d="M 1613 -51 
Q 1056 -51 701 227 
Q 346 506 275 992 
Q 224 1286 224 1651 
Q 224 2022 275 2310 
Q 346 2784 701 3062 
Q 1056 3341 1613 3341 
Q 2163 3341 2512 3062 
Q 2861 2784 2938 2310 
Q 2989 2022 2989 1651 
Q 2989 1293 2938 998 
Q 2867 506 2518 227 
Q 2170 -51 1613 -51 
z
M 1613 723 
Q 1779 723 1897 832 
Q 2016 941 2054 1126 
Q 2086 1395 2086 1651 
Q 2086 1914 2054 2170 
Q 2022 2355 1904 2460 
Q 1786 2566 1606 2566 
Q 1434 2566 1315 2460 
Q 1197 2355 1165 2170 
Q 1133 1978 1133 1651 
Q 1133 1331 1158 1126 
Q 1197 941 1318 832 
Q 1440 723 1613 723 
z
" transform="scale(0.015625)"/>
     <path id="BarlowSemiCondensed-Bold-161" d="M 211 0 
Q 179 0 156 22 
Q 134 45 134 77 
L 134 768 
Q 134 819 166 864 
L 1382 2438 
Q 1395 2451 1388 2464 
Q 1382 2477 1363 2477 
L 250 2477 
Q 218 2477 195 2499 
Q 173 2522 173 2554 
L 173 3213 
Q 173 3245 195 3267 
Q 218 3290 250 3290 
L 2413 3290 
Q 2445 3290 2467 3267 
Q 2490 3245 2490 3213 
L 2490 2528 
Q 2490 2477 2458 2432 
L 1197 858 
Q 1184 845 1190 832 
Q 1197 819 1216 819 
L 2445 819 
Q 2477 819 2499 796 
Q 2522 774 2522 742 
L 2522 77 
Q 2522 45 2499 22 
Q 2477 0 2445 0 
L 211 0 
z
" transform="scale(0.015625)"/>
     <path id="BarlowSemiCondensed-Bold-152" d="M 1114 0 
Q 1043 0 1024 64 
L 128 3213 
L 122 3238 
Q 122 3296 192 3296 
L 1011 3296 
Q 1082 3296 1094 3226 
L 1510 1312 
Q 1517 1286 1529 1286 
Q 1542 1286 1549 1312 
L 1958 3226 
Q 1971 3296 2042 3296 
L 2861 3283 
Q 2944 3283 2925 3200 
L 2042 64 
Q 2022 0 1952 0 
L 1114 0 
z
" transform="scale(0.015625)"/>
     <path id="BarlowSemiCondensed-Bold-137" d="M 1984 3213 
Q 1984 3245 2006 3267 
Q 2029 3290 2061 3290 
L 2810 3290 
Q 2842 3290 2864 3267 
Q 2886 3245 2886 3213 
L 2886 77 
Q 2886 45 2864 22 
Q 2842 0 2810 0 
L 2061 0 
Q 2029 0 2006 22 
Q 1984 45 1984 77 
L 1984 237 
Q 1984 256 1971 259 
Q 1958 262 1946 250 
Q 1728 -45 1261 -45 
Q 826 -45 544 217 
Q 262 480 262 992 
L 262 3213 
Q 262 3245 284 3267 
Q 307 3290 339 3290 
L 1088 3290 
Q 1120 3290 1142 3267 
Q 1165 3245 1165 3213 
L 1165 1203 
Q 1165 979 1270 851 
Q 1376 723 1568 723 
Q 1760 723 1872 857 
Q 1984 992 1984 1216 
L 1984 3213 
z
" transform="scale(0.015625)"/>
    </defs>
    <use xlink:href="#BarlowSemiCondensed-Bold-74"/>
    <use xlink:href="#BarlowSemiCondensed-Bold-ad" transform="translate(54.296875 0)"/>
    <use xlink:href="#BarlowSemiCondensed-Bold-f0" transform="translate(103 0)"/>
    <use xlink:href="#BarlowSemiCondensed-Bold-12e" transform="translate(126.703125 0)"/>
    <use xlink:href="#BarlowSemiCondensed-Bold-d0" transform="translate(172.40625 0)"/>
    <use xlink:href="#BarlowSemiCondensed-Bold-3" transform="translate(221.609375 0)"/>
    <use xlink:href="#BarlowSemiCondensed-Bold-134" transform="translate(241.609375 0)"/>
    <use xlink:href="#BarlowSemiCondensed-Bold-ec" transform="translate(275.109375 0)"/>
    <use xlink:href="#BarlowSemiCondensed-Bold-d0" transform="translate(324.71875 0)"/>
    <use xlink:href="#BarlowSemiCondensed-Bold-3" transform="translate(373.921875 0)"/>
    <use xlink:href="#BarlowSemiCondensed-Bold-c6" transform="translate(393.921875 0)"/>
    <use xlink:href="#BarlowSemiCondensed-Bold-ad" transform="translate(442.515625 0)"/>
    <use xlink:href="#BarlowSemiCondensed-Bold-109" transform="translate(491.21875 0)"/>
    <use xlink:href="#BarlowSemiCondensed-Bold-d0" transform="translate(566.625 0)"/>
    <use xlink:href="#BarlowSemiCondensed-Bold-12b" transform="translate(615.828125 0)"/>
    <use xlink:href="#BarlowSemiCondensed-Bold-ad" transform="translate(650.734375 0)"/>
    <use xlink:href="#BarlowSemiCondensed-Bold-3" transform="translate(699.4375 0)"/>
    <use xlink:href="#BarlowSemiCondensed-Bold-ad" transform="translate(719.4375 0)"/>
    <use xlink:href="#BarlowSemiCondensed-Bold-10a" transform="translate(768.140625 0)"/>
    <use xlink:href="#BarlowSemiCondensed-Bold-cc" transform="translate(817.75 0)"/>
    <use xlink:href="#BarlowSemiCondensed-Bold-3" transform="translate(868.25 0)"/>
    <use xlink:href="#BarlowSemiCondensed-Bold-134" transform="translate(888.25 0)"/>
    <use xlink:href="#BarlowSemiCondensed-Bold-ec" transform="translate(921.75 0)"/>
    <use xlink:href="#BarlowSemiCondensed-Bold-d0" transform="translate(971.359375 0)"/>
    <use xlink:href="#BarlowSemiCondensed-Bold-3" transform="translate(1020.5625 0)"/>
    <use xlink:href="#BarlowSemiCondensed-Bold-ec" transform="translate(1040.5625 0)"/>
    <use xlink:href="#BarlowSemiCondensed-Bold-10f" transform="translate(1090.171875 0)"/>
    <use xlink:href="#BarlowSemiCondensed-Bold-12b" transform="translate(1140.46875 0)"/>
    <use xlink:href="#BarlowSemiCondensed-Bold-f0" transform="translate(1175.875 0)"/>
    <use xlink:href="#BarlowSemiCondensed-Bold-161" transform="translate(1199.578125 0)"/>
    <use xlink:href="#BarlowSemiCondensed-Bold-10f" transform="translate(1241.171875 0)"/>
    <use xlink:href="#BarlowSemiCondensed-Bold-10a" transform="translate(1291.46875 0)"/>
    <use xlink:href="#BarlowSemiCondensed-Bold-3" transform="translate(1341.171875 0)"/>
    <use xlink:href="#BarlowSemiCondensed-Bold-109" transform="translate(1361.171875 0)"/>
    <use xlink:href="#BarlowSemiCondensed-Bold-10f" transform="translate(1436.578125 0)"/>
    <use xlink:href="#BarlowSemiCondensed-Bold-152" transform="translate(1484.671875 0)"/>
    <use xlink:href="#BarlowSemiCondensed-Bold-d0" transform="translate(1529.96875 0)"/>
    <use xlink:href="#BarlowSemiCondensed-Bold-12e" transform="translate(1578.765625 0)"/>
    <use xlink:href="#BarlowSemiCondensed-Bold-3" transform="translate(1624.46875 0)"/>
    <use xlink:href="#BarlowSemiCondensed-Bold-10f" transform="translate(1644.46875 0)"/>
    <use xlink:href="#BarlowSemiCondensed-Bold-137" transform="translate(1694.765625 0)"/>
    <use xlink:href="#BarlowSemiCondensed-Bold-134" transform="translate(1744.359375 0)"/>
   </g>
  </g>
 </g>
 <defs>
  <clipPath id="p1098b0e63c">
   <rect x="37.090396" y="45.80072" width="473.243114" height="171.266112"/>
  </clipPath>
 </defs>
</svg>
